<svg xmlns="http://www.w3.org/2000/svg" width="585.822" height="467.299"><path data-name="Tracé 1" d="M585.822 467.299v-343.8c-9.7-3.5-10.5-3.6-11.1-15.4-.1-1-3.7-.4-3.6-2.5.1-2.6 2.5-4.7 2.5-7.2 0-1.1 2.1-6.7 2.2-4.4-.3-9.4-4.3-7.3-10.8 0-3.9 4.4.7 7-6.8 10.7-8.8 4.4-17.1 2.4-26-.6 0-5.5 9.1-11.8-.3-14.2.5-5.3 7.5-14.9 1.1-11.5-4.3-6.6-22.5-14.7-26.6-4.3-5-6.3-1.1-12.3-7.9-17.5-4.8-3.7-8.4 2.1-12.1-.3-8.4-5.4-4.7-25.7-15.4-27.6-10.3-1.8-8.7 9.2-18.9 5.7-.1 0-8.9-8.9-8.6-8.4-2.5-4.2-1.9-4.7-3.6-10.2a131.308 131.308 0 01-3.6-15.8c-15.9 10.9-39.1 7.1-55.4 20.1-4.5 3.6-1.4 45 1 47.2-8.2 1.8-2.9 12.2 3.3 14 .3 1.4-.5.6.4 2.5-9.1-6-19.1 11.1-25.7 18.5-8.8 9.7-29.1 9.5-40.7 14.2-15.1 6.1-19.7 11.3-26.9 24.5-6.3 11.6 17 12.3 23.1 7.3-4.9 5.5-18.7 9.2-25.1 12.3-10.2 5-14.4 5.8-24.4 3.5-8.6-2-45.5-10.5-45.6-2.5a25.392 25.392 0 01-4.7-.7c1.9-6.7-4.6-8.9-5.6-15-.6-3.9 3.2-8.5 2.9-9.5-4-14.4-16.9-3.2-24.1-3.6-4.7-.3-10.8-4.8-14-4.5-10.1 1 .1 1.7.7 6.2.8 6-1.7 22.3 5.2 23.9.2.1 1.6 3.3 3.2 4.1-.2-1.2.1-1.7.9-1.6.7 4.6 2.3 6.6 4.4 12.4 2.4-1.2 2 .1 4.5 0-5 .9-4.1 3.9-1.3 6.9-2.6 3.6-2.7 7.6-.6 11.8 1.9-1.8 2.2-1.1 3.6-1.6.2-.1.5-.2.7-.3a4.927 4.927 0 00-.7.3c-7.5 4.1-3.2 26.3 4.6 33.2 2.3.2 2.8.6 5.2 1.8-7.4 0-35.1 7.9-29-6.2-6.5.4-14.3 5.4-8 11.1.3-.1 1.1.9 1.4 1.1l.1.1-.1-.1c-.5-.4-1-.8-1.4-1.1h-.1c.6 2.1 2 3.4 2.4 4.9-.5.2-2.3 1.2-2.4 1.8-.8-5.9-2.2-13.9-9.8-11 0 .3 1.3 2.2 1.2 2.5-2.2.5-2.2-.2-3 2.3-.9.1-.9-2.7-1.1-3-.7 1.2-.2 1.9-1.3 3.1a31.628 31.628 0 00-2.2-6.1c-1.5 1.1-4.3 1.6-4.7 1.8.9-1.4 2.1-3.1 2.9-4.4-1.4 0-1.8-.2-2-1.8-2.6 4.2-5.9 5.3-10.2 4.4 1.2 3-9.5 9.4-11.6 12.7-.8-1.3-2.1-1.5-3.1-2.2-2.6-5.7-10.6-21.4-18.3-22.8a22.346 22.346 0 012-3c-2.6.7-3.9.6-5.4 2.5a22.489 22.489 0 01-1.6 3 19.594 19.594 0 011.6-3c2.9-7-3.6-9.8-7.3-.1.5-1.7 0-4.9.4-6.8-3.6 1.8-8.6 4.6-13.1 5.6-.1-.2.8-1.3.8-1.2-6-3.7-12.3 2.2-6.5 7.4-1.6 2.6-1.2 1.3-2.5 4.6-4.8-.3-8.7-2.2-14.3-4.1-1.2 1.6-1.8 2.6-1.6 5.6 0 0-1.1-1.6-1.2-1.3.2 1.9.2 3.7.4 5a11.79 11.79 0 01-2.4-4.4c-.5.2-3.1 1.7-3.7 1.8.4-3.2-1.3-3.9-1.1-6.8-2.5 2.4-3.6 1.6-5.4 4.3-4-1.9-7.5-1-7.7 3.1-1.7.3-4.9.7-6.7.8-2.7-3.7-5-3.1-6-.1-3.2.1-5.8 1.4-9.4 1.2 0 1.6 1.1 1.6 2 2.5-1.2.6-3.3-.4-4.6-.1.1.3 1.8 3.1 1.8 3.1-9.8-3.5-16.1 10.9-12.3 17.2 4.5 7.3 20.8-2.2 29.4-4.9a20.041 20.041 0 00-9.8 8.6 19.122 19.122 0 013.3-.6s-.7.5-.4.6c2.2-1 3.7-1.5 5.3-2.4.3.4-.9 1.2-.4 1.3 1.3-.4 2-1.1 3.3-1.3a29.06 29.06 0 00-3.3 3.7c4.2.1 5.2 1.2 8.2 1.9-2 .2-4.3.4-6 .6.5-.1 2-.4 1.5-.6-6.1 1.3-17 2.3-16.9-4.2-2.8 3.8-2.2 3.1-4.7 5.3a2.775 2.775 0 010 1.8c4.9.1 5.6 3.3 4.1 8 3.3-6.9 16.8-6.9 16.5 2-.3 9.3-21.9 2.1-26.7 10.2 8.6 3.6 28.5 6.3 21.2 20.7 7.7 2.2 14.8-.5 11.1-6 1.4.3 1 .3 2 1.7.2-.8 1.8-1.3 2.5-1.3-1.1-1.8-.8-3.3-1.3-4.8 2.3 4.8 3.4 5.3 7.6 4.8.5-.4 1-1 1-3 2.6 1.2 5.3 5.8 6.5 6.2 3.2 1 7.5 2.5 10.3 3.2 5.9 1.5 16.1 8.8 20.4 6.9.4-.9-1.2-1.4-1.1-1.6 1.7-1.4 3.6-2 5.3-3.6-1.6 1.9-2.5 4.4-3.8 5.9 1.2.4 3.9 1.6 4.5 1.8-1.7-.6-3.1-.2-4.5-.5 2.4 1.3 5.5 2.2 8 3.6 2.9-2.6 4-4.9 1.8-8 1.8 0 1.9.5 3.2-.5 1.2 1.5.5 1.2 1.3 1.8-3.4 4.1-5.4 19.9 2 22.4-2.6-3.6-2.6-7.2-2.3-10.6a2.566 2.566 0 011.3 1.5c1.6-.1 3.6-.6 5.1 0 0-1.4-.6-1.3.2-2.3.7 1.1 0 1.9 1 2.7a1.122 1.122 0 00.1-1.6l-.1-.1.1.1a42.614 42.614 0 003.2 3c-.8-2.4-1.1-6.2-2.1-9.1.4 1.3 1.4 1.6 2.5 2.4-.1 1.1-.7 1.5-.4 3.1a5.841 5.841 0 001-.1c0-.2.2-.1 0 0a1.233 1.233 0 00.2.7c2.6-1.5 7.2-3.6 7.8-4.2.8.7 2.3 1 3.3 1.8 2.5 1.1.9 2.5 1.7-1.8 1.6 4.8-.8 9.8-6.1 6.6-2.4.6-1.7 1.3-5.9.8 3.2 4.7 11.5 7.3 14.5 2.2.2-.1 2.1.6 2.7.6l.1-.1c.3-.9-1.2-.8-1.2-1.1.9.7 3.1-.9 3.7-1.2a27.253 27.253 0 01-2.5 2.3v.1h-.1c-.2.2-.5.4-.7.6 4.5-.9 11.1-.1 16 1.2-9.7 0-8.4 5.2-1.7 7.3a20.966 20.966 0 00-2.8 2.4c-2.6-1.7-1.6-1-7 1.1 1.1 1.7 2.2 4 3.3 5.5 1.2-.3.3-1.6 1.3-2.4a33.215 33.215 0 002.6 3.6c-2.1 0-3.2.8-6.3 0 5.2 5.2 14.4 3.2 20.6 2.4 1.4-.2 2.7-.4 3.8-.5.1 0 .1-.1.2-.1 3.7-2.6 11.7.1 13.7 1.2a.865.865 0 00.3.6c2.5 1.1 5.5 2.7 9.9 4.9-4.4-.7-8.8-3-9.9-4.9-4.4-2-7.4-2.4-14.1-1.7-5.4 4 1.3 9.7-6.6 12.5 26.5 7.1 3.7 12.2 6.9 26.7.9 4.1 10.6 9.1 12.9 12.5 3.8 5.6 5.3 11.2 7.4 17.4a21.744 21.744 0 01-.2-3.6c5.4 12.9 24.9 12.4 34.3 21.9 3.2-8.1 9.5-.4 4.1 3-7.4 4.6-.9 5.8-.3 7.8 1 3.2 9.8 11.6 2.4 11.6 2.7 4.8 1.3 8.3.3 11.6z" fill="#393939"/><path d="M295.922 328.399c3.4 2.1 4.9-.5 2-2.9-1.1-.8 0-1.8.5-2.6 0-.8.7-.1 1.1-.2 3.6 4.9 2.5.3 5-.5.6.8 2.1-.2 2.6-.8.4.4 1.3.1 1.8 0 .3-.4 1-.7.8-1.3 1.2.3 3.8-.3 3.7-1.8-.8 1.3-1.4.1-1.5-.9-1-.9-.7-1.3.1-2.1 1.5 0 1.2-1.7 2.1-2.6 1.9.2 2.6-2.4 4.5-1.2.7-1.7-1.9-1.5 1-2.5.8-1 2-2.1 2.2-3.4.7-.7 1.4-.1 1.6-1.1.2-.8-.4-1.3-.9-1.7.6-2.4-1.1-3.6 2-5.1.7.9 2.3 3.8 1.4.5-.2-1.7.5-3 2.3-3.2.2-3.2-2.8-2.7-.6-6.4 1.5-3.8-3.4.2-2.4-5.3-.3-1.4 3.8.8 3-2.3-4.9-.1 1.9-.9.3-4 2.2-.1 6.3 0 2.2-2.4-1-.5-2.4-.1-3.2-.7-.6-.7-2.1-1.8-2.4-2.2-2.6 2-2.8.6-4.6-.8.3-.4-2-3.4-2.1-3.8.2-1.2-1.1-1.6-2-2-2.1.2-.3 2.4-1.1 2.6-1.3-1.2-3.5-.6-5.5-1.4-1 .4-.6-.3-.8-1-.7-.7-2.2-1-2.6-2.3.8-1 .5-2.7-1-1.5a3.144 3.144 0 00-2.1-.5c-2.4-.4.3-2.5.8-3.3-2.2-.5-1.8-2-1-3.6-.7-1.7-2.6.4-3-1.5-.1-.1-.7 1.1-.7 1.1-1.4-1.6 1-3.9-.7-5.3.1-1.3-1.3-3-2.1-1.2a1.42 1.42 0 00-1.4-.7c-.6-.8-1.8-.6-2.6-1.1-.2.1-.2.6-.4.7-.5.3-2.4.2-2.9.3-.4.4-1.3 1.1-1.8 1-2.1-.4.9 2.2-2.4.6 1.9 1.3-.3 2.2-1.6 1.8-1.8 2.2-.2 1.9-3.4 2.8-.9 1.8-4 1.1-4.5-.6-1.1.1-2 1.6-3.2 1.8-.2-.5-1.3.2-1.6.7-2.2-1.5-4.9 1.3-2.4 3.1-1.9-1-3-1-2.5 1.6 2.1 1.3.2 3.9-.7 5.5a5.5 5.5 0 001.2 3.5 1.36 1.36 0 00-.1 1.7 6.721 6.721 0 00-2.8 2.2c-.9.5-5 1.6-3 2.9-2.7 2.3 3.8 2.1.1 5.2a1.081 1.081 0 00.7 1.4c-.2 2.6-1.4 1.8-3.3 1.5-.6.8-2.5 2-3.8 1.4-.5.2-.1 1 0 1.4-.3 1.4-.1 2.2 1.4 2.4.4-.1-.3.8-.1 1.1a4.845 4.845 0 01.7 2.6c2.9 1.3-.9 3.1-2 2.9-.9 1.1-4-.4-4.3 1.6-1.4 0 0 1.5-.6 2 .7 0 1.5.4.7.9-1.6.8-1.2 2.3-1 3.8a.966.966 0 00-1.5.4c-1.2.4-.4 2.2.1 3 .5.7 2.3 0 2.7.4 1 2 0 4.2.8 5.8.4 1 1.4.9.4 2.5.6.3 1.4-.2 1.8-.5 1.6.6 3.6.1 4.9 1.4 1.6 1.2 2.7-2.1 4-1.3.3.7 2.4 1.1.6 1.3.2 1.5-2.6 1.4-2.1 2.6.3.1.9 1.9 1.2 1.9-.2 1 .2 1.6 1.3 1.6 1.3-.9 1.7 1.9 2.9.8 1.2.6.7-1.2 1.4-1.8 1.2-1.4.6 1.3 2.1-.1 1 .9 3.1.9 3.5 1.8.4-.3.9-1.1 1.2-.5.8 1.1.6 2.4 2.2 2.5.6.4 1.4 2 2.2 1 .7.1 1.8.7 2.5.2.8.1.5 1.3 1.6 1.1.5 1 .8 1.5 1.5.2 2.3.3.6-3 2.8-2.2.1.7.2 1 .8.3.8.5 1.9 0 2.8.1.9 1.8 4.8.4 5.2 2.7z" fill="#fff"/><path data-name="Tracé_30239 - Contour" d="M298.133 330.17a5.323 5.323 0 01-2.736-.92 1 1 0 01-.459-.679c-.073-.418-.412-.559-1.814-.753a4.639 4.639 0 01-2.919-1.12c-.133.012-.276.03-.423.049a7.332 7.332 0 01-.943.078 3.153 3.153 0 01-.69-.071 1.278 1.278 0 01-.736.244 1.168 1.168 0 01-.74-.27 2.838 2.838 0 01-.365.919 1.879 1.879 0 01-1.427.857 1.619 1.619 0 01-1.283.777 1.639 1.639 0 01-1.387-1 1.776 1.776 0 01-1.176-.937 2.4 2.4 0 01-.5.049 5.062 5.062 0 01-1.436-.271l-.117-.035a1.551 1.551 0 01-.816.233 2.66 2.66 0 01-1.858-1.136 10.28 10.28 0 00-.212-.23 2.748 2.748 0 01-2.149-2 12.05 12.05 0 00-.106-.253c-.04.034-.081.067-.123.1a1 1 0 01-1.5-.361 4.519 4.519 0 00-1.081-.434 8.757 8.757 0 01-1.5-.584 1.6 1.6 0 01-.744.2 1.305 1.305 0 01-.8-.265 8.777 8.777 0 00-.045.209 3.428 3.428 0 01-.252.842 1.385 1.385 0 01-1.268.818 1.575 1.575 0 01-.26-.022 1.606 1.606 0 01-.7.162 2.218 2.218 0 01-1.614-.922 5.255 5.255 0 00-.253-.264 1 1 0 01-.486.126 2.311 2.311 0 01-1.9-.771 2.136 2.136 0 01-.452-1.474 7.336 7.336 0 01-.482-.892 9.522 9.522 0 00-.3-.586 1 1 0 01-.293-.392 1.567 1.567 0 01.346-1.779 3.836 3.836 0 011.016-.662 2.994 2.994 0 00.67-.41 1 1 0 01.015-.347 3.14 3.14 0 01-.151-.136 6.7 6.7 0 00-.547.464 3.392 3.392 0 01-2.206 1.153 2.17 2.17 0 01-1.319-.466.964.964 0 01-.107-.093 3.762 3.762 0 00-2.367-.747 10.986 10.986 0 01-1.666-.262 3.018 3.018 0 01-1.548.494 1.9 1.9 0 01-.859-.2 1 1 0 01-.4-1.424 2.585 2.585 0 00.261-.5c-.028-.034-.063-.073-.092-.106a3.29 3.29 0 01-.633-.95 6.309 6.309 0 01-.417-3.021 6.9 6.9 0 00-.191-2.317c-.09 0-.189.013-.292.021a9.279 9.279 0 01-.714.035 2.12 2.12 0 01-1.788-.748l-.034-.051c-.292-.466-1.207-2.084-.755-3.342a1.813 1.813 0 01.741-.927 1.736 1.736 0 011.1-.8 4.961 4.961 0 01.031-1.4 2.863 2.863 0 01.722-1.46 1 1 0 01-.154-1.214c-.015-.069-.036-.15-.052-.213a1.865 1.865 0 01.159-1.705 1.383 1.383 0 01.583-.439 2.088 2.088 0 011.161-1.04 4.8 4.8 0 011.743-.234h.409a2.572 2.572 0 00.992-.1 1 1 0 01.938-.343h.019a3.472 3.472 0 001.8-.781 2.229 2.229 0 00-.4-.222 1 1 0 01-.591-.913 3.844 3.844 0 00-.543-2.062 1.271 1.271 0 01-.177-.9 2.224 2.224 0 01-.99-.773 3 3 0 01-.32-2.312v-.007a3.592 3.592 0 01-.211-.916 1.4 1.4 0 01.871-1.458 1 1 0 01.791.021.876.876 0 00.366.07 3.452 3.452 0 002.215-1.162 1 1 0 01.956-.388c.351.055.676.125.962.188a5.445 5.445 0 00.935.155.612.612 0 00.061 0 1.244 1.244 0 00.11-.34 2.064 2.064 0 01-.469-.614 2.1 2.1 0 01-.1-1.613 1 1 0 01.306-.451c.675-.565.791-.858.81-.925a3.1 3.1 0 00-.627-.546 2.564 2.564 0 01-1.316-1.865 1.887 1.887 0 01.321-1.083 1.525 1.525 0 01-.181-.886c.129-1.312 1.807-1.984 3.287-2.577.213-.085.43-.172.588-.242a7.378 7.378 0 012.221-1.9 2.411 2.411 0 01.157-1.147 6.569 6.569 0 01-1.018-3.565 1 1 0 01.128-.49c.106-.189.222-.385.345-.593 1.327-2.244 1.49-3.078.7-3.567a1 1 0 01-.456-.661 3.261 3.261 0 01.324-2.8 1.674 1.674 0 011.154-.6 2.619 2.619 0 01.129-.853 3.09 3.09 0 012.949-2.065 3.237 3.237 0 011.118.2 2.6 2.6 0 011.528-.647 1.382 1.382 0 01.435.069 5.761 5.761 0 00.846-.605 4.05 4.05 0 012.108-1.087h.091a1 1 0 01.959.718 1.755 1.755 0 001.652.939 1.041 1.041 0 00.994-.5 1 1 0 01.624-.516 12.461 12.461 0 001.694-.55c.021-.039.057-.114.086-.177a7.518 7.518 0 011.116-1.743 1 1 0 011.068-.322 1.366 1.366 0 00.392.052 1.814 1.814 0 00.39-.042l-.041-.028a1 1 0 011-1.725l.226.107a1.249 1.249 0 01.2-.353 1.4 1.4 0 011.153-.5 2.9 2.9 0 01.482.044 3.492 3.492 0 00.994-.709 1 1 0 01.512-.274 7.473 7.473 0 011.1-.076c.333-.01.95-.028 1.31-.078a1.34 1.34 0 01.641-.759 1 1 0 01.978.046 2.848 2.848 0 00.8.251 3.828 3.828 0 011.675.689 2.354 2.354 0 01.858.261 1.653 1.653 0 01.99-.333 1.934 1.934 0 011.4.673 3.329 3.329 0 01.828 1.88 2.631 2.631 0 01.641 1.6 6.058 6.058 0 01-.214 1.714l-.066.3h.035a1.012 1.012 0 01.721.3 1 1 0 01.271.5c.005.025.01.047.016.065.088 0 .2-.018.311-.032a5.115 5.115 0 01.642-.051 2.021 2.021 0 011.978 1.342 1 1 0 01-.03.828c-.6 1.19-.566 1.617-.5 1.766s.382.312.823.412a1 1 0 01.626 1.505 6.576 6.576 0 01-.688.837 11.124 11.124 0 00-.765.911h.174a4.215 4.215 0 011.682.363 2 2 0 01.935-.25 1.483 1.483 0 011.361.863 2.483 2.483 0 01-.1 2.1 3.654 3.654 0 001.024.742 5.283 5.283 0 011.141.8 1 1 0 01.254.433 2.6 2.6 0 01.066.3 1.007 1.007 0 01.144.045 8.409 8.409 0 002.323.442 11.155 11.155 0 011.842.28 1.915 1.915 0 01.356-1.189 2.151 2.151 0 011.613-.8 1.027 1.027 0 01.5.082c.09.041.185.081.281.121a5.7 5.7 0 011.5.828 2.187 2.187 0 01.836 1.765c.126.205.349.541.524.8.354.533.756 1.137 1.059 1.666a4.317 4.317 0 01.472 1.036c.259.222.481.436.684.63.427.409.7.66.886.66.156 0 .552-.1 1.445-.789a1 1 0 011.407.189c.1.122.526.481.837.744a16.854 16.854 0 011.424 1.3 3.312 3.312 0 001.03.16 4.939 4.939 0 011.959.41l.058.032c1.315.77 2.492 1.639 2.2 2.779-.3 1.189-1.874 1.363-3.656 1.438a2.791 2.791 0 01-.554 1.625 4.1 4.1 0 01-.488.561 1 1 0 01.458.61 2.509 2.509 0 01-.268 2.241 2.575 2.575 0 01-2.1.8c-.162 0-.317-.005-.466-.01l-.2-.006c-.171 1.146.013 1.521.078 1.613.1.138.365.19.76.253a2.115 2.115 0 011.693.917 2.854 2.854 0 01-.136 2.412 1.009 1.009 0 01-.071.144 3.618 3.618 0 00-.668 1.791 1.878 1.878 0 00.432.9 4.717 4.717 0 01.974 3.26 1 1 0 01-.887.931 1.594 1.594 0 00-1.121.52 2.126 2.126 0 00-.3 1.5c.325 1.2.4 1.83.041 2.3a1.058 1.058 0 01-.848.42c-.719 0-1.131-.611-1.878-1.722a1.578 1.578 0 00-.558.566 2.293 2.293 0 00-.048 1.088 7.761 7.761 0 010 1.749 2.324 2.324 0 01.786 2.3 1.711 1.711 0 01-1.515 1.449 2.332 2.332 0 00-.172.037 7.719 7.719 0 01-1.787 2.8c-.187.216-.365.421-.521.616a1 1 0 01-.455.321c-.15.052-.278.1-.386.139a2.148 2.148 0 01-.015 1.8 1 1 0 01-1.459.465.867.867 0 00-.43-.163 2.105 2.105 0 00-.916.515 4.179 4.179 0 01-2.112 1 5.384 5.384 0 00-.242.588 2.575 2.575 0 01-1.908 1.979c-.048.052-.095.1-.132.15a2.67 2.67 0 00.243.244 1 1 0 01.326.644c0 .043.01.086.016.127a1 1 0 011.487.806 2.225 2.225 0 01-.628 1.7 4.834 4.834 0 01-3.3 1.242 3.044 3.044 0 01-.574.637 2.4 2.4 0 00-.2.188 1.007 1.007 0 01-.6.38 6.01 6.01 0 00-.226.051 5.093 5.093 0 01-1.153.171 2.409 2.409 0 01-.4-.032 3.74 3.74 0 01-2.189.927 1.853 1.853 0 01-.709-.136 3.548 3.548 0 00-.746 1.062c-.344.634-.815 1.5-1.818 1.5-.822 0-1.611-.6-2.824-2.18l-.141.195a4.112 4.112 0 00-.452.714l.046.037.049.038c1.531 1.268 2.209 2.813 1.77 4.035a2.2 2.2 0 01-2.183 1.4zm-1.358-2.432a2.969 2.969 0 001.357.432c.162 0 .3-.036.315-.084.074-.2-.113-.94-1.142-1.8a1.9 1.9 0 01-.788-2.094 4.363 4.363 0 01.782-1.43c.054-.074.107-.146.155-.215a1.216 1.216 0 011.209-1.037 2 2 0 01.7.155l.1.035a1 1 0 01.863.406 10.155 10.155 0 001.435 1.683c.06-.1.124-.221.178-.32a4.089 4.089 0 012.276-2.223 1 1 0 011.009.242 2.6 2.6 0 001.128-.73 1 1 0 01.723-.358h.045a1 1 0 01.6.2h.015a3.428 3.428 0 00.659-.109c.066-.063.131-.121.193-.176.04-.036.092-.082.135-.123a1 1 0 011.238-1.064 1.975 1.975 0 00.455.045 3.788 3.788 0 00.986-.137q-.057-.093-.11-.2a3.741 3.741 0 01-.312-.954 2.156 2.156 0 01-.694-1.426 2.64 2.64 0 011.025-1.865 1 1 0 01.707-.293c.151 0 .173-.026.194-.052a2.759 2.759 0 00.295-.653 4.149 4.149 0 01.9-1.6 1 1 0 01.707-.293c.035 0 .07 0 .1.005a.936.936 0 00.1.006 2.19 2.19 0 001.208-.611 3.968 3.968 0 011.754-.89 1.173 1.173 0 01-.029-.757c.19-.657.845-.976 1.763-1.3.127-.151.258-.3.385-.45a5.343 5.343 0 001.422-2.25 1 1 0 01.281-.555 2.428 2.428 0 011.344-.68c.005-.122-.1-.265-.562-.632a1 1 0 01-.345-1.023 4.947 4.947 0 00.07-1.725 3.9 3.9 0 01.23-2.1 4.364 4.364 0 012.235-1.936 1 1 0 01.879 0 3.46 3.46 0 01.68-1.534 3.288 3.288 0 011.548-1.063 3.1 3.1 0 00-.6-1.282 3.634 3.634 0 01-.772-1.893 5.139 5.139 0 01.9-2.869 3.786 3.786 0 00.163-.516l-.2-.033a2.86 2.86 0 01-2.077-1.072 4.285 4.285 0 01-.392-3.263 1.339 1.339 0 01.285-.954 1.867 1.867 0 011.509-.554h.154a1.137 1.137 0 01-.7-.739 1.169 1.169 0 01.457-1.269 6.028 6.028 0 01.526-.378c1.4-.937 1.5-1.335 1.191-1.927a1 1 0 01.843-1.458c.2-.009.406-.016.624-.024.445-.016 1.182-.041 1.77-.1a12.062 12.062 0 00-.62-.39 3.584 3.584 0 00-1.167-.19 3.829 3.829 0 01-2.161-.592.989.989 0 01-.159-.149 13.95 13.95 0 00-1.3-1.183c-.164-.139-.31-.262-.438-.374a3.594 3.594 0 01-1.959.7 3.266 3.266 0 01-2.27-1.216 11.164 11.164 0 00-.889-.791 1 1 0 01-.383-.875 19.305 19.305 0 00-1.225-2 5.7 5.7 0 01-.848-1.469 1 1 0 01-.016-.407c.017-.1.025-.15-.121-.273a4.134 4.134 0 00-.952-.5c.014.134.052.316.078.44a3.325 3.325 0 01.1.835 1.279 1.279 0 01-.976 1.232 1 1 0 01-.921-.235 4.066 4.066 0 00-2.317-.63 11.192 11.192 0 01-2.521-.447 1.741 1.741 0 01-.435.059 1.218 1.218 0 01-1.167-.794 2.078 2.078 0 01-.109-.7v-.094a5.79 5.79 0 00-.5-.3 4.02 4.02 0 01-2.124-2.232.57.57 0 00-.6-.962 2.212 2.212 0 00-1.178-.357 1.6 1.6 0 00-.226.015.989.989 0 01-.306 0 1.976 1.976 0 01-1.729-1.2c-.338-.973.353-1.911 1.054-2.706a2.349 2.349 0 01-.769-.909 3.408 3.408 0 01.176-2.78c-.068.006-.141.016-.217.025a4.967 4.967 0 01-.615.049 2.046 2.046 0 01-.833-.164 1 1 0 01-1.554.061 3.69 3.69 0 01-.482-3.506c.239-1.061.253-1.389-.1-1.68a1 1 0 01-.361-.849 1.316 1.316 0 00-.191-.713 1 1 0 01-.851.587h-.061a1 1 0 01-.857-.485.491.491 0 00-.345-.234 1 1 0 01-1-.381c-.123-.163-.421-.239-.9-.344-.142-.031-.29-.064-.441-.1a1.19 1.19 0 01-.375.322 5.685 5.685 0 01-2.427.368c-.165 0-.366.011-.525.019a4.018 4.018 0 01-1.969 1.041 1.17 1.17 0 01-1.02 1.11 2.636 2.636 0 01-2.56 1.384c-.088 0-.175 0-.26-.009a5.054 5.054 0 00-.506.873c-.463.986-.9 1.19-2.676 1.7a3.072 3.072 0 01-2.533 1.2 4.172 4.172 0 01-2.134-.6 3.5 3.5 0 01-.92-.8 8.43 8.43 0 00-.5.389 4.608 4.608 0 01-2.091 1.137.988.988 0 01-.562-.069 1.366 1.366 0 00-.346.3 1 1 0 01-1.419.31 1.346 1.346 0 00-.763-.252 1.1 1.1 0 00-1.045.679c-.137.426.227.8.556 1.036a1 1 0 01-1.05 1.7 5.008 5.008 0 00-1.151-.481 3.191 3.191 0 00.036.628 2.931 2.931 0 01.925 3.093 10.979 10.979 0 01-1.348 2.911l-.189.321a4.446 4.446 0 00.975 2.62 1 1 0 010 1.249c-.113.142-.182.349-.1.451a1 1 0 01-.367 1.535 5.745 5.745 0 00-2.395 1.863 1 1 0 01-.334.3 9.5 9.5 0 01-.991.434c-.444.178-.947.379-1.377.6a4.6 4.6 0 00-.444.254 1 1 0 01-.025 1.5 2.267 2.267 0 00-.256.25c.117.106.3.243.437.343a2.8 2.8 0 011.44 2.085 3.063 3.063 0 01-1.165 2.208h.011a1 1 0 01.681 1.025 3.741 3.741 0 01-.6 2 1.944 1.944 0 01-1.643.774 6.572 6.572 0 01-1.358-.2l-.339-.072a5.507 5.507 0 01-3.187 1.475 1 1 0 01.008.452c-.172.8-.065.986-.052 1 0 0 .082.109.5.179h.029a1.067 1.067 0 01.887.465 1.359 1.359 0 010 1.336l-.027.067a5.7 5.7 0 01.655 2.225 1.9 1.9 0 011.058 2.071c-.311 1.453-2.454 2.369-3.666 2.452a3.716 3.716 0 01-2.123.453h-.409a3.539 3.539 0 00-1.02.1c-.078.03-.1.039-.124.188a1 1 0 01-.538.744c.024.1.05.21.069.332a1.464 1.464 0 01.865.924 1.394 1.394 0 01-.756 1.6.966.966 0 01-.083.046c-.706.353-.744.789-.518 2.332l.063.441a1 1 0 01-1.505.99.384.384 0 00-.08-.034 1 1 0 01-.536.506 3.217 3.217 0 00.487 1.388 1.763 1.763 0 00.218.011c.171 0 .37-.015.563-.03s.421-.032.625-.032a1.7 1.7 0 011.246.426.991.991 0 01.188.26 7.383 7.383 0 01.576 3.69 4.705 4.705 0 00.224 2.109c.012.025.024.05.034.076a1.367 1.367 0 00.286.4 2.154 2.154 0 01.586 1.051 1.006 1.006 0 01.75-.02 7.01 7.01 0 001.684.308 5.51 5.51 0 013.507 1.257.213.213 0 00.077.037c.167 0 .634-.426.859-.631a3.077 3.077 0 012-1.061 1.786 1.786 0 01.948.275 1 1 0 01.36.385 3.627 3.627 0 00.461.3 4.538 4.538 0 01.443.277 1.12 1.12 0 01-.305 2.038 2.079 2.079 0 01-.528.77 4.605 4.605 0 01-1.108.712l-.211.109c.108.189.214.408.333.654.084.174.215.442.3.589a1 1 0 01.41 1.018 1.027 1.027 0 00-.023.359.586.586 0 00.113.028 1.759 1.759 0 01.735-.165 2.362 2.362 0 011.707.967c.045.05.1.111.155.167a1 1 0 01.516-.153 2.718 2.718 0 01.7-1.5 1.757 1.757 0 011.286-.716 1.232 1.232 0 01.98.481 1 1 0 011.22.092 4.5 4.5 0 001.46.642 7.273 7.273 0 011.374.542 1.486 1.486 0 01.928-.358 1.269 1.269 0 011.12.688 6.07 6.07 0 01.627 1.222c.3.729.352.783.784.81a1 1 0 01.492.166 4.059 4.059 0 01.722.683c.09.1.216.24.326.348a1 1 0 01.739-.188 5.793 5.793 0 01.806.2 3.663 3.663 0 00.869.189.314.314 0 00.1-.012.981.981 0 01.7-.177 1.806 1.806 0 011.385 1.074l.011.021a1 1 0 01.916.449 1.01 1.01 0 01.793-.244 1.172 1.172 0 00.15.011h.051a3.178 3.178 0 00.127-.5 3.331 3.331 0 01.326-1.019 1.58 1.58 0 011.428-.823 2.73 2.73 0 01.93.186 1 1 0 01.376.243 1.015 1.015 0 01.613.148.751.751 0 00.386.074 5.846 5.846 0 00.69-.062 7.28 7.28 0 01.931-.078 3.269 3.269 0 01.374.02 1 1 0 01.784.546c.182.363.994.476 1.781.584a7.267 7.267 0 011.982.465 2.52 2.52 0 011.413 1.423z" fill="#fff"/><path d="M289.622 286.999h7.1v7.1h-7.1z" fill="#1e97a7"/><path data-name="Tracé 6" d="M253.638 310.15v-10.8h2.04v8.9h4.65v1.9zm11.73.225a4.382 4.382 0 01-2.194-.536 3.868 3.868 0 01-1.485-1.478 4.279 4.279 0 01-.536-2.156 4.832 4.832 0 01.525-2.31 3.821 3.821 0 011.448-1.526 4.1 4.1 0 012.122-.544 3.8 3.8 0 012.168.6 3.524 3.524 0 011.322 1.688 5.619 5.619 0 01.3 2.557h-2.02v-.75a3.1 3.1 0 00-.394-1.781 1.48 1.48 0 00-1.286-.544 1.819 1.819 0 00-1.534.634 3.017 3.017 0 00-.491 1.871 2.755 2.755 0 00.491 1.75 1.733 1.733 0 001.444.619 1.926 1.926 0 001.028-.262 1.675 1.675 0 00.652-.757l2.04.585a3.589 3.589 0 01-1.444 1.725 4 4 0 01-2.156.615zm-2.685-3.705v-1.515h5.37v1.515zm11.04 3.48v-10.8h1.83l3.57 7.17 3.57-7.17h1.83v10.8h-1.9v-6.45l-3.14 6.45h-.72l-3.135-6.45v6.45zm15.15.225a3.008 3.008 0 01-1.474-.334 2.281 2.281 0 01-.915-.891 2.492 2.492 0 01-.311-1.234 2.934 2.934 0 01.173-1.027 2.1 2.1 0 01.559-.821 3.087 3.087 0 011.039-.6 7.548 7.548 0 011.073-.292q.622-.128 1.41-.244l1.732-.259-.735.405a1.424 1.424 0 00-.345-1.057 1.618 1.618 0 00-1.155-.338 2.3 2.3 0 00-.937.218 1.255 1.255 0 00-.682.772l-1.847-.583a3.13 3.13 0 011.155-1.64 3.793 3.793 0 012.31-.63 5.14 5.14 0 011.905.33 2.378 2.378 0 011.26 1.14 2.418 2.418 0 01.285.9q.045.45.045 1.005v4.955h-1.785v-1.665l.255.345a3.85 3.85 0 01-1.279 1.181 3.686 3.686 0 01-1.736.364zm.435-1.6a2.056 2.056 0 00.949-.2 2.114 2.114 0 00.615-.454 1.974 1.974 0 00.311-.428 2.057 2.057 0 00.184-.769q.026-.439.026-.731l.6.15q-.907.15-1.47.251t-.908.184a5.294 5.294 0 00-.607.18 2.1 2.1 0 00-.484.259.923.923 0 00-.27.3.781.781 0 00-.086.368.811.811 0 00.139.476.869.869 0 00.394.3 1.592 1.592 0 00.607.109zm11.58 1.375v-3.825q0-.277-.03-.709a3.187 3.187 0 00-.187-.866 1.652 1.652 0 00-.514-.727 1.55 1.55 0 00-1.009-.293 2.127 2.127 0 00-.562.082 1.39 1.39 0 00-.562.319 1.711 1.711 0 00-.431.694 3.592 3.592 0 00-.169 1.215l-1.17-.555a4.222 4.222 0 01.39-1.8 3.228 3.228 0 011.174-1.357 3.516 3.516 0 011.976-.518 3.269 3.269 0 011.552.323 2.559 2.559 0 01.934.818 3.4 3.4 0 01.476 1.031 5.22 5.22 0 01.173.979q.03.442.03.645v4.544zm-5.535 0v-8.1h1.815v2.685h.255v5.415zm12.72.225a4.066 4.066 0 01-2.471-.694 2.894 2.894 0 01-1.144-1.961l2.08-.315a1.462 1.462 0 00.566.892 1.831 1.831 0 001.114.322 1.459 1.459 0 00.855-.214.691.691 0 00.3-.6.59.59 0 00-.12-.386 1.251 1.251 0 00-.536-.289q-.416-.143-1.294-.375a7.343 7.343 0 01-1.583-.57 2.117 2.117 0 01-.855-.754 2.031 2.031 0 01-.263-1.061 2.318 2.318 0 01.4-1.354 2.548 2.548 0 011.121-.885 4.3 4.3 0 011.706-.311 4.538 4.538 0 011.688.292 2.935 2.935 0 011.189.833 2.486 2.486 0 01.559 1.275l-2.085.375a1.012 1.012 0 00-.39-.712 1.673 1.673 0 00-.915-.307 1.642 1.642 0 00-.9.15.588.588 0 00-.341.54.473.473 0 00.146.352 1.688 1.688 0 00.608.293q.461.15 1.406.39a6.167 6.167 0 011.481.559 2.1 2.1 0 01.814.765 2.136 2.136 0 01.255 1.076 2.36 2.36 0 01-.9 1.957 3.914 3.914 0 01-2.491.717z" fill="#222"/><path d="M171.522 269.999h7.1v7.1h-7.1z" fill="#1e97a7"/><path data-name="Tracé 5" d="M147.099 264.633v-10.8h4.56q.158 0 .424.011a3.592 3.592 0 01.476.049 3.342 3.342 0 011.59.64 2.886 2.886 0 01.911 1.226 4.437 4.437 0 01.289 1.644 3.943 3.943 0 01-.675 2.321 3.006 3.006 0 01-2.115 1.189l-.9.06h-2.52v3.66zm6.09 0l-2.13-4.395 2.1-.4 2.34 4.795zm-4.05-5.565h2.43q.158 0 .345-.015a1.769 1.769 0 00.345-.06 1.231 1.231 0 00.637-.379 1.5 1.5 0 00.311-.592 2.423 2.423 0 00.086-.619 2.423 2.423 0 00-.086-.619 1.5 1.5 0 00-.311-.593 1.231 1.231 0 00-.637-.378 1.769 1.769 0 00-.345-.06q-.187-.015-.345-.015h-2.43zm11.775 5.79a4.382 4.382 0 01-2.194-.536 3.868 3.868 0 01-1.485-1.477 4.279 4.279 0 01-.536-2.156 4.832 4.832 0 01.525-2.31 3.821 3.821 0 011.448-1.526 4.1 4.1 0 012.122-.544 3.8 3.8 0 012.168.6 3.524 3.524 0 011.32 1.688 5.619 5.619 0 01.3 2.557h-2.018v-.75a3.1 3.1 0 00-.394-1.781 1.48 1.48 0 00-1.286-.544 1.819 1.819 0 00-1.534.634 3.017 3.017 0 00-.491 1.87 2.755 2.755 0 00.49 1.75 1.733 1.733 0 001.444.619 1.926 1.926 0 001.028-.262 1.675 1.675 0 00.652-.758l2.04.585a3.589 3.589 0 01-1.443 1.726 4 4 0 01-2.156.615zm-2.685-3.705v-1.515h5.37v1.515zm13.335 3.48v-3.825q0-.277-.03-.709a3.187 3.187 0 00-.185-.866 1.652 1.652 0 00-.514-.727 1.55 1.55 0 00-1.009-.293 2.127 2.127 0 00-.562.082 1.39 1.39 0 00-.562.319 1.711 1.711 0 00-.431.694 3.592 3.592 0 00-.172 1.215l-1.17-.555a4.222 4.222 0 01.39-1.8 3.228 3.228 0 011.174-1.357 3.516 3.516 0 011.976-.518 3.269 3.269 0 011.552.323 2.559 2.559 0 01.934.818 3.4 3.4 0 01.476 1.031 5.22 5.22 0 01.173.979q.03.442.03.645v4.544zm-5.535 0v-8.1h1.82v2.685h.255v5.415zm15.075 0v-3.825q0-.277-.03-.709a3.187 3.187 0 00-.187-.866 1.652 1.652 0 00-.514-.727 1.55 1.55 0 00-1.009-.293 2.127 2.127 0 00-.562.082 1.39 1.39 0 00-.562.319 1.711 1.711 0 00-.431.694 3.592 3.592 0 00-.17 1.215l-1.17-.555a4.222 4.222 0 01.39-1.8 3.228 3.228 0 011.174-1.357 3.516 3.516 0 011.976-.518 3.269 3.269 0 011.553.323 2.559 2.559 0 01.934.818 3.4 3.4 0 01.476 1.031 5.22 5.22 0 01.173.979q.03.442.03.645v4.544zm-5.535 0v-8.1h1.815v2.685h.255v5.415zm13.17.225a4.382 4.382 0 01-2.19-.536 3.868 3.868 0 01-1.485-1.477 4.279 4.279 0 01-.536-2.156 4.832 4.832 0 01.521-2.311 3.821 3.821 0 011.447-1.526 4.1 4.1 0 012.123-.544 3.8 3.8 0 012.167.6 3.524 3.524 0 011.32 1.688 5.619 5.619 0 01.3 2.557h-2.017v-.75a3.1 3.1 0 00-.394-1.781 1.48 1.48 0 00-1.286-.544 1.819 1.819 0 00-1.534.634 3.017 3.017 0 00-.491 1.871 2.755 2.755 0 00.491 1.75 1.733 1.733 0 001.444.619 1.926 1.926 0 001.03-.261 1.675 1.675 0 00.65-.758l2.04.585a3.589 3.589 0 01-1.444 1.725 4 4 0 01-2.156.615zm-2.685-3.705v-1.515h5.37v1.515zm11.205 3.705a4.066 4.066 0 01-2.471-.694 2.894 2.894 0 01-1.144-1.961l2.085-.315a1.462 1.462 0 00.566.892 1.831 1.831 0 001.114.322 1.459 1.459 0 00.855-.214.691.691 0 00.3-.6.59.59 0 00-.12-.386 1.251 1.251 0 00-.536-.289q-.416-.143-1.294-.375a7.343 7.343 0 01-1.583-.57 2.117 2.117 0 01-.855-.754 2.031 2.031 0 01-.263-1.061 2.318 2.318 0 01.4-1.354 2.548 2.548 0 011.121-.885 4.3 4.3 0 011.706-.311 4.538 4.538 0 011.688.292 2.936 2.936 0 011.189.833 2.486 2.486 0 01.559 1.275l-2.087.38a1.012 1.012 0 00-.39-.712 1.673 1.673 0 00-.915-.307 1.642 1.642 0 00-.9.15.588.588 0 00-.341.54.473.473 0 00.146.352 1.688 1.688 0 00.608.293q.461.15 1.406.39a6.167 6.167 0 011.481.559 2.1 2.1 0 01.814.765 2.136 2.136 0 01.251 1.075 2.36 2.36 0 01-.9 1.957 3.914 3.914 0 01-2.49.713z" fill="#fff"/><path d="M220.122 355.399h7.1v7.1h-7.1zm88.2 41.3h7.1v7.1h-7.1z" fill="#1e97a7"/><path data-name="Tracé 4" d="M195.84 350.015v-10.8h2.07l4.7 7.2v-7.2h2.07v10.8h-2.075l-4.695-7.2v7.2zm13.185.225a3.008 3.008 0 01-1.474-.334 2.281 2.281 0 01-.915-.891 2.492 2.492 0 01-.311-1.234 2.934 2.934 0 01.172-1.027 2.1 2.1 0 01.559-.821 3.087 3.087 0 011.039-.6 7.548 7.548 0 011.073-.292q.622-.126 1.41-.242l1.733-.259-.735.405a1.424 1.424 0 00-.345-1.057 1.618 1.618 0 00-1.155-.338 2.3 2.3 0 00-.937.218 1.255 1.255 0 00-.682.772l-1.847-.585a3.13 3.13 0 011.155-1.64 3.793 3.793 0 012.31-.63 5.14 5.14 0 011.905.33 2.378 2.378 0 011.26 1.14 2.418 2.418 0 01.285.9q.045.45.045 1.005v4.955h-1.78v-1.665l.255.345a3.85 3.85 0 01-1.284 1.181 3.685 3.685 0 01-1.736.364zm.435-1.6a2.056 2.056 0 00.949-.2 2.114 2.114 0 00.615-.454 1.974 1.974 0 00.311-.428 2.057 2.057 0 00.184-.769q.026-.439.026-.731l.6.15q-.907.15-1.47.251t-.907.184a5.294 5.294 0 00-.608.18 2.1 2.1 0 00-.484.259.923.923 0 00-.27.3.781.781 0 00-.086.368.811.811 0 00.139.476.869.869 0 00.394.3 1.591 1.591 0 00.607.109zm11.58 1.375v-3.825q0-.277-.03-.709a3.187 3.187 0 00-.187-.866 1.652 1.652 0 00-.514-.727 1.55 1.55 0 00-1.009-.293 2.127 2.127 0 00-.562.082 1.39 1.39 0 00-.562.319 1.711 1.711 0 00-.431.694 3.592 3.592 0 00-.169 1.215l-1.17-.555a4.222 4.222 0 01.39-1.8 3.228 3.228 0 011.174-1.357 3.516 3.516 0 011.976-.518 3.269 3.269 0 011.552.323 2.559 2.559 0 01.934.818 3.4 3.4 0 01.476 1.031 5.22 5.22 0 01.173.979q.03.442.03.645v4.544zm-5.535 0v-8.1h1.815v2.685h.255v5.415zm14.415 0a7.918 7.918 0 01-1.646.139 3.928 3.928 0 01-1.44-.285 1.925 1.925 0 01-.964-.854 2.49 2.49 0 01-.315-1.129q-.015-.574-.015-1.3v-6.921h2.04v6.8q0 .473.011.851a1.186 1.186 0 00.154.6 1.027 1.027 0 00.862.465 6.688 6.688 0 001.313-.06zm-5.76-6.525v-1.575h5.76v1.575zm10.875 6.75a4.382 4.382 0 01-2.194-.536 3.868 3.868 0 01-1.485-1.477 4.279 4.279 0 01-.536-2.156 4.832 4.832 0 01.525-2.31 3.821 3.821 0 011.445-1.527 4.1 4.1 0 012.123-.544 3.8 3.8 0 012.167.6 3.524 3.524 0 011.32 1.688 5.619 5.619 0 01.3 2.557h-2.01v-.75a3.1 3.1 0 00-.4-1.781 1.48 1.48 0 00-1.286-.544 1.819 1.819 0 00-1.534.634 3.017 3.017 0 00-.49 1.871 2.755 2.755 0 00.491 1.75 1.733 1.733 0 001.444.619 1.926 1.926 0 001.028-.262 1.675 1.675 0 00.653-.758l2.04.585a3.589 3.589 0 01-1.446 1.726 4 4 0 01-2.155.615zm-2.685-3.705v-1.515h5.37v1.515zm11.205 3.705a4.066 4.066 0 01-2.471-.694 2.894 2.894 0 01-1.144-1.961l2.085-.315a1.462 1.462 0 00.566.892 1.831 1.831 0 001.114.322 1.459 1.459 0 00.855-.214.691.691 0 00.3-.6.59.59 0 00-.12-.386 1.251 1.251 0 00-.536-.289q-.414-.138-1.294-.37a7.343 7.343 0 01-1.583-.57 2.117 2.117 0 01-.855-.754 2.031 2.031 0 01-.263-1.061 2.318 2.318 0 01.4-1.354 2.548 2.548 0 011.121-.885 4.3 4.3 0 011.706-.311 4.538 4.538 0 011.688.292 2.936 2.936 0 011.189.833 2.486 2.486 0 01.559 1.275l-2.085.375a1.012 1.012 0 00-.39-.712 1.673 1.673 0 00-.915-.307 1.642 1.642 0 00-.9.15.588.588 0 00-.341.54.473.473 0 00.146.352 1.688 1.688 0 00.608.293q.461.15 1.406.39a6.167 6.167 0 011.481.559 2.1 2.1 0 01.814.765 2.136 2.136 0 01.255 1.076 2.36 2.36 0 01-.9 1.957 3.914 3.914 0 01-2.496.712z" fill="#fff"/><path data-name="Tracé 3" d="M292.672 391.349v-8.895h-3.405v-1.905h8.85v1.905h-3.405v8.895zm9.09.225a4.123 4.123 0 01-2.145-.548 3.8 3.8 0 01-1.436-1.511 4.64 4.64 0 01-.514-2.216 4.591 4.591 0 01.525-2.231 3.826 3.826 0 011.448-1.5 4.123 4.123 0 012.122-.54 4.143 4.143 0 012.149.548 3.819 3.819 0 011.444 1.511 4.612 4.612 0 01.518 2.216 4.6 4.6 0 01-.521 2.224 3.819 3.819 0 01-1.449 1.503 4.151 4.151 0 01-2.141.544zm0-1.905a1.7 1.7 0 001.466-.664 2.825 2.825 0 00.484-1.706 2.777 2.777 0 00-.495-1.725 1.719 1.719 0 00-1.459-.645 1.863 1.863 0 00-1.1.3 1.766 1.766 0 00-.634.832 3.414 3.414 0 00-.197 1.238 2.773 2.773 0 00.49 1.729 1.707 1.707 0 001.445.641zm8.775 1.92a3.269 3.269 0 01-1.552-.323 2.559 2.559 0 01-.934-.817 3.4 3.4 0 01-.476-1.031 5.22 5.22 0 01-.173-.979q-.03-.442-.03-.645v-4.545h2.07v3.825q0 .277.03.709a3.187 3.187 0 00.188.866 1.652 1.652 0 00.514.727 1.55 1.55 0 001.009.293 2.127 2.127 0 00.563-.082 1.39 1.39 0 00.563-.319 1.71 1.71 0 00.431-.7 3.6 3.6 0 00.167-1.209l1.17.555a4.222 4.222 0 01-.39 1.8 3.228 3.228 0 01-1.17 1.357 3.516 3.516 0 01-1.98.518zm2.625-.24v-2.685h-.255v-5.415h2.055v8.1zm3.9 0v-8.1h1.8v1.98l-.195-.255a2.988 2.988 0 01.42-.765 2.208 2.208 0 01.645-.57 2.615 2.615 0 01.638-.281 3.377 3.377 0 01.712-.127 3.8 3.8 0 01.735.018v1.905a2.1 2.1 0 00-.784-.071 2.24 2.24 0 00-.806.206 1.842 1.842 0 00-.608.439 1.841 1.841 0 00-.375.645 2.565 2.565 0 00-.127.836v4.14zm9.045.225a4.066 4.066 0 01-2.471-.694 2.894 2.894 0 01-1.144-1.961l2.085-.315a1.462 1.462 0 00.566.892 1.831 1.831 0 001.114.322 1.459 1.459 0 00.86-.213.691.691 0 00.3-.6.59.59 0 00-.12-.386 1.251 1.251 0 00-.536-.289q-.416-.143-1.294-.375a7.343 7.343 0 01-1.583-.57 2.117 2.117 0 01-.855-.754 2.031 2.031 0 01-.263-1.061 2.318 2.318 0 01.4-1.354 2.548 2.548 0 011.121-.885 4.3 4.3 0 011.706-.311 4.538 4.538 0 011.688.292 2.935 2.935 0 011.189.833 2.486 2.486 0 01.559 1.275l-2.092.379a1.012 1.012 0 00-.39-.712 1.673 1.673 0 00-.915-.307 1.642 1.642 0 00-.9.15.588.588 0 00-.341.54.473.473 0 00.146.352 1.688 1.688 0 00.608.293q.461.15 1.406.39a6.167 6.167 0 011.481.559 2.1 2.1 0 01.814.765 2.136 2.136 0 01.255 1.076 2.36 2.36 0 01-.9 1.957 3.914 3.914 0 01-2.494.712z" fill="#fff"/><path data-name="Tracé 2" d="M452.246 402.688v-10.8h2.04v8.9h4.65v1.9zm8.25 3.6l1.56-4.29.03 1.26-3.525-8.67h2.115l2.37 6.135h-.48l2.355-6.135h2.04l-4.575 11.7zm10.86-3.375a4.123 4.123 0 01-2.145-.548 3.8 3.8 0 01-1.436-1.511 4.64 4.64 0 01-.514-2.216 4.591 4.591 0 01.525-2.231 3.826 3.826 0 011.448-1.5 4.123 4.123 0 012.122-.54 4.143 4.143 0 012.149.548 3.819 3.819 0 011.441 1.507 4.612 4.612 0 01.52 2.216 4.6 4.6 0 01-.52 2.224 3.819 3.819 0 01-1.449 1.507 4.151 4.151 0 01-2.141.544zm0-1.905a1.7 1.7 0 001.466-.664 2.825 2.825 0 00.484-1.706 2.777 2.777 0 00-.491-1.725 1.719 1.719 0 00-1.459-.645 1.863 1.863 0 00-1.095.3 1.766 1.766 0 00-.634.832 3.414 3.414 0 00-.206 1.237 2.773 2.773 0 00.491 1.729 1.707 1.707 0 001.444.642zm11.28 1.68v-3.825q0-.277-.03-.709a3.187 3.187 0 00-.187-.866 1.652 1.652 0 00-.514-.727 1.55 1.55 0 00-1.009-.293 2.127 2.127 0 00-.562.082 1.39 1.39 0 00-.562.319 1.711 1.711 0 00-.431.694 3.592 3.592 0 00-.169 1.215l-1.17-.555a4.222 4.222 0 01.39-1.8 3.228 3.228 0 011.174-1.357 3.516 3.516 0 011.98-.518 3.269 3.269 0 011.552.323 2.559 2.559 0 01.934.818 3.4 3.4 0 01.476 1.031 5.22 5.22 0 01.173.979q.03.442.03.645v4.544zm-5.535 0v-8.1h1.815v2.685h.255v5.415z" fill="#fff"/><path fill="#1e97a7" d="M443.508 206.581l5.02-5.02 5.02 5.02-5.02 5.02z"/><path data-name="Tracé 29" d="M430.411 196.12v-10.8h4.56q.158 0 .424.011a3.592 3.592 0 01.476.049 3.342 3.342 0 011.59.64 2.886 2.886 0 01.911 1.226 4.437 4.437 0 01.289 1.644 4.387 4.387 0 01-.3 1.646 2.915 2.915 0 01-.915 1.226 3.334 3.334 0 01-1.575.638q-.21.03-.48.045t-.42.015h-2.52v3.66zm2.04-5.565h2.43q.158 0 .345-.015a1.769 1.769 0 00.345-.06 1.231 1.231 0 00.637-.379 1.5 1.5 0 00.311-.592 2.423 2.423 0 00.086-.619 2.423 2.423 0 00-.086-.619 1.5 1.5 0 00-.311-.593 1.231 1.231 0 00-.637-.378 1.769 1.769 0 00-.345-.06q-.187-.015-.345-.015h-2.43zm9.81 5.79a3.008 3.008 0 01-1.474-.334 2.281 2.281 0 01-.915-.891 2.492 2.492 0 01-.311-1.235 2.934 2.934 0 01.172-1.027 2.1 2.1 0 01.559-.821 3.087 3.087 0 011.039-.6 7.548 7.548 0 011.073-.292q.622-.128 1.41-.244l1.733-.259-.735.405a1.424 1.424 0 00-.345-1.057 1.618 1.618 0 00-1.155-.338 2.3 2.3 0 00-.937.218 1.255 1.255 0 00-.683.772l-1.846-.582a3.13 3.13 0 011.155-1.64 3.793 3.793 0 012.31-.63 5.14 5.14 0 011.9.33 2.378 2.378 0 011.26 1.14 2.418 2.418 0 01.285.9q.045.45.045 1.005v4.955h-1.78v-1.665l.255.345a3.85 3.85 0 01-1.279 1.181 3.685 3.685 0 01-1.736.364zm.435-1.6a2.056 2.056 0 00.949-.2 2.114 2.114 0 00.615-.454 1.974 1.974 0 00.311-.428 2.057 2.057 0 00.184-.769q.026-.439.026-.731l.6.15q-.907.15-1.47.251t-.908.184a5.294 5.294 0 00-.608.18 2.1 2.1 0 00-.484.259.923.923 0 00-.27.3.781.781 0 00-.086.368.811.811 0 00.139.476.869.869 0 00.394.3 1.591 1.591 0 00.608.109zm6.06 1.375v-8.1h1.8V190l-.195-.255a2.988 2.988 0 01.42-.765 2.208 2.208 0 01.645-.57 2.615 2.615 0 01.638-.281 3.377 3.377 0 01.712-.127 3.8 3.8 0 01.735.019v1.905a2.1 2.1 0 00-.784-.071 2.24 2.24 0 00-.806.206 1.842 1.842 0 00-.608.439 1.841 1.841 0 00-.375.645 2.565 2.565 0 00-.128.836v4.139zm6.33-9.225v-1.8h2.04v1.8zm0 9.225v-8.1h2.04v8.1zm7.455.225a4.066 4.066 0 01-2.471-.694 2.894 2.894 0 01-1.144-1.961l2.085-.315a1.462 1.462 0 00.566.892 1.831 1.831 0 001.114.322 1.459 1.459 0 00.855-.214.691.691 0 00.3-.6.59.59 0 00-.12-.386 1.251 1.251 0 00-.536-.289q-.416-.143-1.294-.375a7.343 7.343 0 01-1.583-.57 2.117 2.117 0 01-.855-.754 2.031 2.031 0 01-.262-1.061 2.318 2.318 0 01.4-1.354 2.548 2.548 0 011.121-.885 4.3 4.3 0 011.706-.311 4.538 4.538 0 011.688.292 2.936 2.936 0 011.189.833 2.486 2.486 0 01.559 1.275l-2.088.38a1.012 1.012 0 00-.39-.712 1.673 1.673 0 00-.92-.308 1.642 1.642 0 00-.9.15.588.588 0 00-.341.54.473.473 0 00.146.352 1.688 1.688 0 00.608.293q.461.15 1.406.39a6.167 6.167 0 011.481.559 2.1 2.1 0 01.814.765 2.136 2.136 0 01.255 1.076 2.36 2.36 0 01-.9 1.957 3.914 3.914 0 01-2.489.713z" fill="#fff"/><path fill="none" d="M430.662 214.265h16.1v16.1h-16.1z"/><path d="M443.269 218.31a.961.961 0 00-.9-.7h-7.4a.961.961 0 00-.9.7l-1.4 4v5.3a.684.684 0 00.7.7h.7a.669.669 0 00.6-.7v-.6h8v.6a.684.684 0 00.7.7h.7a.684.684 0 00.7-.7v-5.3zm-7.6 6.7a.945.945 0 01-1-1 .945.945 0 011-1 .945.945 0 011 1 .945.945 0 01-1 1zm6 0a.945.945 0 01-1-1 .945.945 0 011-1 .945.945 0 011 1 .945.945 0 01-1 1zm-7.1-4.1l.7-2h6.9l.7 2z" fill="#fff"/><path data-name="Tracé 18" d="M412.023 227.264l.008-.812 3.9-3.528a2.442 2.442 0 00.672-.86 2.314 2.314 0 00.164-.864 1.884 1.884 0 00-.25-.963 1.9 1.9 0 00-.676-.686 1.829 1.829 0 00-.958-.255 1.856 1.856 0 00-.983.263 1.919 1.919 0 00-.681.7 1.832 1.832 0 00-.244.941h-.9a2.694 2.694 0 01.372-1.41 2.694 2.694 0 011.008-.98 2.876 2.876 0 011.44-.366 2.733 2.733 0 011.413.369 2.727 2.727 0 01.991 1 2.726 2.726 0 01.364 1.4 3.146 3.146 0 01-.13.951 2.44 2.44 0 01-.4.76 5.5 5.5 0 01-.692.725l-3.47 3.123-.14-.36h4.832v.852zm11.76 0v-3.308a4.512 4.512 0 00-.1-.991 2.329 2.329 0 00-.328-.791 1.556 1.556 0 00-.583-.524 1.857 1.857 0 00-.869-.186 2 2 0 00-.824.16 1.583 1.583 0 00-.6.463 2.1 2.1 0 00-.367.737 3.557 3.557 0 00-.125.984l-.624-.144a3.639 3.639 0 01.348-1.67 2.4 2.4 0 01.959-1.024 2.8 2.8 0 011.4-.346 2.665 2.665 0 011.016.178 2.194 2.194 0 01.737.484 2.505 2.505 0 01.489.7 3.485 3.485 0 01.27.835 4.673 4.673 0 01.084.878v3.565zm-4.684 0v-8.64h.8v4.88h.092v3.76z" fill="#fff"/><path data-name="Tracé 17" d="M471.515 227.444a2.823 2.823 0 01-1.245-.28 2.867 2.867 0 01-.973-.762 2.948 2.948 0 01-.574-1.11l.844-.228a1.91 1.91 0 00.417.806 2.078 2.078 0 00.7.525 2.016 2.016 0 00.847.185 1.968 1.968 0 001.041-.278 2.065 2.065 0 00.73-.74 1.979 1.979 0 00.269-1.014 1.94 1.94 0 00-.281-1.032 2.1 2.1 0 00-.744-.73 1.971 1.971 0 00-1.011-.27 2 2 0 00-1.052.267 2.151 2.151 0 00-.708.673l-.8-.34.26-4.492h4.612v.84h-4.224l.44-.412-.24 3.84-.22-.3a2.583 2.583 0 01.9-.664 2.661 2.661 0 011.11-.24 2.769 2.769 0 011.439.381 2.85 2.85 0 011.024 1.032 2.81 2.81 0 01.379 1.447 2.723 2.723 0 01-.4 1.449 3.063 3.063 0 01-1.072 1.052 2.831 2.831 0 01-1.468.395zm6.932 0a2.823 2.823 0 01-1.245-.28 2.867 2.867 0 01-.973-.762 2.948 2.948 0 01-.574-1.114l.844-.224a1.91 1.91 0 00.417.806 2.078 2.078 0 00.7.525 2.016 2.016 0 00.847.185 1.968 1.968 0 001.037-.278 2.065 2.065 0 00.73-.74 1.979 1.979 0 00.269-1.014 1.94 1.94 0 00-.276-1.032 2.1 2.1 0 00-.744-.73 1.971 1.971 0 00-1.011-.27 2 2 0 00-1.052.267 2.151 2.151 0 00-.708.673l-.8-.34.259-4.492h4.612v.84h-4.224l.44-.412-.236 3.84-.22-.3a2.583 2.583 0 01.9-.664 2.661 2.661 0 011.11-.24 2.769 2.769 0 011.439.381 2.85 2.85 0 011.022 1.028 2.81 2.81 0 01.379 1.447 2.723 2.723 0 01-.4 1.449 3.063 3.063 0 01-1.07 1.052 2.831 2.831 0 01-1.472.399zm12.108-.18l.008-4.252a1.625 1.625 0 00-.417-1.183 1.414 1.414 0 00-1.059-.429 1.613 1.613 0 00-.716.169 1.371 1.371 0 00-.571.54 1.863 1.863 0 00-.225.975l-.524-.152a2.323 2.323 0 01.271-1.22 2.067 2.067 0 01.8-.811 2.324 2.324 0 011.161-.289 2.089 2.089 0 011.569.6 2.235 2.235 0 01.591 1.632l-.008 4.42zm-7.732 0v-6.48h.792v1.6h.092v4.88zm3.872 0l.008-4.2a1.735 1.735 0 00-.411-1.221 1.4 1.4 0 00-1.081-.447 1.4 1.4 0 00-1.088.468 1.759 1.759 0 00-.415 1.223l-.524-.288a2.151 2.151 0 01.294-1.122 2.118 2.118 0 01.8-.778 2.338 2.338 0 011.159-.284 2.272 2.272 0 011.1.262 1.872 1.872 0 01.759.766 2.525 2.525 0 01.279 1.221l-.008 4.4zm6.428-7.708v-.992h.88v.992zm0 7.708v-6.48h.88v6.48zm7.36 0v-3.308a4.512 4.512 0 00-.1-.991 2.329 2.329 0 00-.328-.791 1.556 1.556 0 00-.583-.524 1.857 1.857 0 00-.869-.186 2 2 0 00-.824.16 1.583 1.583 0 00-.6.463 2.1 2.1 0 00-.367.737 3.557 3.557 0 00-.125.984l-.624-.144a3.639 3.639 0 01.348-1.674 2.4 2.4 0 01.959-1.024 2.8 2.8 0 011.4-.346 2.665 2.665 0 011.016.178 2.194 2.194 0 01.737.484 2.505 2.505 0 01.489.7 3.486 3.486 0 01.27.835 4.673 4.673 0 01.084.878v3.569zm-4.684 0v-6.48h.8v1.6h.092v4.88z" fill="#fff"/><path d="M450.284 214.265h16.1v16.1h-16.1z" fill="none"/><path d="M458.284 215.565c-2.6 0-5.3.4-5.3 2.7v6.4a2.263 2.263 0 002.3 2.3l-1 1v.3h1.5l1.3-1.3h2.5l1.3 1.3h1.4v-.3l-1-1a2.326 2.326 0 002.3-2.3v-6.4c.1-2.3-2.3-2.7-5.3-2.7zm-3 10.1a.945.945 0 01-1-1 .945.945 0 011-1 .945.945 0 011 1 .945.945 0 01-1 1zm2.4-4.7h-3.4v-2.7h3.3l.1 2.7zm1.3 0v-2.7h3.3v2.7zm2.3 4.7a.945.945 0 01-1-1 .945.945 0 011-1 .945.945 0 011 1 1 1 0 01-1 1z" fill="#fff"/><path fill="#1e97a7" d="M466.397 37.689h7.1v7.1h-7.1z"/><path data-name="Tracé 26" d="M454.842 30.789v-10.8h2.04v8.9h4.65v1.9zm8.115-9.225v-1.8h2.04v1.8zm0 9.225v-8.1h2.04v8.1zm4.44 0V19.764h2.045v11.025zm4.445 0V19.764h2.04v11.025zm8.05.225a4.382 4.382 0 01-2.194-.536 3.868 3.868 0 01-1.485-1.477 4.279 4.279 0 01-.536-2.156 4.832 4.832 0 01.525-2.31 3.821 3.821 0 011.448-1.526 4.1 4.1 0 012.122-.544 3.8 3.8 0 012.168.6 3.524 3.524 0 011.32 1.688 5.619 5.619 0 01.3 2.557h-2.018v-.75a3.1 3.1 0 00-.394-1.781 1.48 1.48 0 00-1.286-.544 1.819 1.819 0 00-1.534.634 3.017 3.017 0 00-.491 1.871 2.755 2.755 0 00.491 1.749 1.733 1.733 0 001.444.619 1.926 1.926 0 001.028-.262 1.675 1.675 0 00.652-.757l2.04.585a3.589 3.589 0 01-1.444 1.725 4 4 0 01-2.156.615zm-2.685-3.705v-1.515h5.37v1.515z" fill="#fff"/><path fill="none" d="M451.968 49.281h16v16h-16z"/><path d="M464.675 53.226a.961.961 0 00-.9-.7h-7.4a.961.961 0 00-.9.7l-1.4 4v5.3a.684.684 0 00.7.7h.7a.669.669 0 00.6-.7v-.6h8v.6a.684.684 0 00.7.7h.7a.684.684 0 00.7-.7v-5.3zm-7.6 6.7a.945.945 0 01-1-1 .945.945 0 011-1 .945.945 0 011 1 .945.945 0 01-1 1zm6 0a.945.945 0 01-1-1 .945.945 0 011-1 .945.945 0 011 1 .945.945 0 01-1 1zm-7.1-4.1l.7-2h6.9l.7 2z" fill="#fff"/><path data-name="Tracé 22" d="M423.419 62.265v-1.672h-4.044v-.844l2.892-6.124h.992l-2.892 6.124h3.052v-2.52h.888v2.52h.944v.844h-.944v1.672zm7.956 0v-3.308a4.512 4.512 0 00-.1-.991 2.329 2.329 0 00-.328-.791 1.556 1.556 0 00-.583-.524 1.857 1.857 0 00-.867-.186 2 2 0 00-.824.16 1.583 1.583 0 00-.6.463 2.1 2.1 0 00-.367.737 3.557 3.557 0 00-.125.984l-.63-.144a3.639 3.639 0 01.348-1.67 2.4 2.4 0 01.959-1.024 2.8 2.8 0 011.4-.346 2.665 2.665 0 011.016.178 2.194 2.194 0 01.737.484 2.505 2.505 0 01.489.7 3.485 3.485 0 01.27.835 4.673 4.673 0 01.084.878v3.565zm-4.688 0v-8.64h.8v4.88h.088v3.76zm9.452.172a3.014 3.014 0 01-1.18-.227 2.626 2.626 0 01-.929-.651 2.621 2.621 0 01-.571-1.01l.84-.252a1.835 1.835 0 00.713.973 1.9 1.9 0 001.119.319 1.98 1.98 0 00.991-.26 1.662 1.662 0 00.638-.684 2.2 2.2 0 00.223-1.016 1.969 1.969 0 00-.513-1.419 1.787 1.787 0 00-1.355-.537 2.007 2.007 0 00-.49.065 2.347 2.347 0 00-.478.175l-.444-.7 3.356-3.1.144.364h-4.4v-.852h4.992v.856l-2.928 2.8-.012-.352a2.835 2.835 0 011.581.2 2.4 2.4 0 011.072.97 2.928 2.928 0 01.387 1.525 2.925 2.925 0 01-.358 1.465 2.575 2.575 0 01-.98.988 2.809 2.809 0 01-1.418.36zm7.136.008a2.8 2.8 0 01-1.438-.372 2.759 2.759 0 01-1.01-1.01 2.8 2.8 0 01-.372-1.438v-3.36a2.8 2.8 0 01.372-1.438 2.759 2.759 0 011.01-1.01 2.8 2.8 0 011.438-.372 2.8 2.8 0 011.438.372 2.759 2.759 0 011.01 1.01 2.8 2.8 0 01.372 1.438v3.36a2.8 2.8 0 01-.372 1.44 2.759 2.759 0 01-1.01 1.01 2.8 2.8 0 01-1.438.37zm0-.852a1.865 1.865 0 00.97-.26 1.966 1.966 0 00.7-.7 1.865 1.865 0 00.26-.97v-3.442a1.865 1.865 0 00-.26-.97 1.967 1.967 0 00-.7-.7 1.865 1.865 0 00-.97-.26 1.865 1.865 0 00-.97.26 1.967 1.967 0 00-.7.7 1.865 1.865 0 00-.26.97v3.444a1.865 1.865 0 00.26.97 1.967 1.967 0 00.7.7 1.865 1.865 0 00.97.258z" fill="#fff"/><path data-name="Tracé 21" d="M493.093 62.437a3.014 3.014 0 01-1.18-.227 2.626 2.626 0 01-.929-.651 2.621 2.621 0 01-.571-1.01l.84-.252a1.835 1.835 0 00.713.973 1.9 1.9 0 001.119.319 1.98 1.98 0 00.991-.26 1.662 1.662 0 00.638-.684 2.2 2.2 0 00.219-1.016 1.969 1.969 0 00-.513-1.419 1.787 1.787 0 00-1.355-.537 2.007 2.007 0 00-.49.065 2.347 2.347 0 00-.478.175l-.444-.7 3.356-3.1.144.364h-4.396v-.852h4.992v.856l-2.928 2.8-.012-.352a2.835 2.835 0 011.581.2 2.4 2.4 0 011.072.97 2.928 2.928 0 01.387 1.525 2.925 2.925 0 01-.358 1.465 2.575 2.575 0 01-.98.988 2.809 2.809 0 01-1.418.36zm9-.172v-3.308a4.512 4.512 0 00-.1-.991 2.329 2.329 0 00-.328-.791 1.556 1.556 0 00-.583-.524 1.857 1.857 0 00-.867-.186 2 2 0 00-.824.16 1.583 1.583 0 00-.6.463 2.1 2.1 0 00-.367.737 3.557 3.557 0 00-.125.984l-.63-.144a3.639 3.639 0 01.348-1.67 2.4 2.4 0 01.959-1.024 2.8 2.8 0 011.4-.346 2.665 2.665 0 011.016.178 2.194 2.194 0 01.737.484 2.505 2.505 0 01.489.7 3.485 3.485 0 01.27.835 4.673 4.673 0 01.084.878v3.565zm-4.688 0v-8.64h.8v4.88h.088v3.76z" fill="#fff"/><path d="M471.69 49.265h16.1v16.1h-16.1z" fill="none"/><path d="M479.69 50.565c-2.6 0-5.3.4-5.3 2.7v6.4a2.263 2.263 0 002.3 2.3l-1 1v.3h1.5l1.3-1.3h2.5l1.3 1.3h1.4v-.3l-1-1a2.326 2.326 0 002.3-2.3v-6.4c.1-2.3-2.3-2.7-5.3-2.7zm-3 10.1a.945.945 0 01-1-1 .945.945 0 011-1 .945.945 0 011 1 .945.945 0 01-1 1zm2.4-4.7h-3.4v-2.7h3.3l.1 2.7zm1.3 0v-2.7h3.3v2.7zm2.3 4.7a.945.945 0 01-1-1 .945.945 0 011-1 .945.945 0 011 1 1 1 0 01-1 1z" fill="#fff"/><path fill="#1e97a7" d="M256.328 169.461h7.1v7.1h-7.1z"/><path data-name="Tracé 28" d="M245.25 192.821a5.325 5.325 0 01-2.794-.705 4.7 4.7 0 01-1.807-1.972 6.51 6.51 0 01-.634-2.948 6.51 6.51 0 01.634-2.947 4.7 4.7 0 011.807-1.973 5.325 5.325 0 012.794-.7 5.155 5.155 0 013.124.923 4.892 4.892 0 011.781 2.5l-2.055.57a2.93 2.93 0 00-1.012-1.534 2.945 2.945 0 00-1.838-.539 3.024 3.024 0 00-1.714.457 2.785 2.785 0 00-1.031 1.285 5.091 5.091 0 00-.345 1.958 5.091 5.091 0 00.345 1.958 2.785 2.785 0 001.031 1.29 3.024 3.024 0 001.714.457 2.931 2.931 0 001.838-.548 2.95 2.95 0 001.012-1.522l2.055.57a4.892 4.892 0 01-1.781 2.495 5.155 5.155 0 01-3.124.925zm8.8 0a3.008 3.008 0 01-1.474-.334 2.281 2.281 0 01-.911-.891 2.492 2.492 0 01-.311-1.234 2.934 2.934 0 01.172-1.027 2.1 2.1 0 01.559-.821 3.087 3.087 0 011.039-.6 7.548 7.548 0 011.073-.292q.622-.128 1.41-.244l1.733-.259-.735.405a1.424 1.424 0 00-.345-1.057 1.618 1.618 0 00-1.155-.338 2.3 2.3 0 00-.937.218 1.255 1.255 0 00-.682.772l-1.846-.583a3.13 3.13 0 011.155-1.64 3.793 3.793 0 012.31-.63 5.14 5.14 0 011.905.33 2.378 2.378 0 011.26 1.14 2.418 2.418 0 01.285.9q.045.45.045 1.005v4.955h-1.785v-1.665l.255.345a3.85 3.85 0 01-1.279 1.181 3.685 3.685 0 01-1.736.364zm.435-1.6a2.056 2.056 0 00.949-.2 2.114 2.114 0 00.615-.454 1.974 1.974 0 00.316-.431 2.057 2.057 0 00.184-.769q.026-.439.026-.731l.6.15q-.908.15-1.47.251t-.907.184a5.294 5.294 0 00-.608.18 2.1 2.1 0 00-.484.259.923.923 0 00-.27.3.781.781 0 00-.086.368.811.811 0 00.139.476.869.869 0 00.394.3 1.591 1.591 0 00.607.112zm9.83 1.6a4.382 4.382 0 01-2.194-.536 3.868 3.868 0 01-1.485-1.477 4.279 4.279 0 01-.536-2.156 4.832 4.832 0 01.525-2.31 3.821 3.821 0 011.448-1.526 4.1 4.1 0 012.122-.544 3.8 3.8 0 012.168.6 3.524 3.524 0 011.32 1.688 5.619 5.619 0 01.3 2.557h-2.018v-.75a3.1 3.1 0 00-.394-1.781 1.48 1.48 0 00-1.286-.544 1.819 1.819 0 00-1.534.634 3.017 3.017 0 00-.491 1.871 2.755 2.755 0 00.491 1.749 1.733 1.733 0 001.444.619 1.926 1.926 0 001.028-.262 1.675 1.675 0 00.652-.757l2.04.585a3.589 3.589 0 01-1.444 1.725 4 4 0 01-2.156.615zm-2.685-3.705v-1.515H267v1.515zm13.335 3.48v-3.825q0-.277-.03-.709a3.187 3.187 0 00-.187-.866 1.652 1.652 0 00-.514-.727 1.55 1.55 0 00-1.009-.293 2.127 2.127 0 00-.562.082 1.39 1.39 0 00-.562.319 1.711 1.711 0 00-.431.694 3.592 3.592 0 00-.169 1.215l-1.17-.555a4.222 4.222 0 01.39-1.8 3.228 3.228 0 011.174-1.357 3.516 3.516 0 011.976-.518 3.269 3.269 0 011.552.323 2.559 2.559 0 01.934.818 3.4 3.4 0 01.476 1.031 5.22 5.22 0 01.172.979q.03.442.03.645v4.544zm-5.535 0v-8.1h1.815v2.685h.255v5.415z" fill="#fff"/><path fill="none" d="M242.426 201.265h16.1v16.1h-16.1z"/><path d="M255.133 205.31a1.2 1.2 0 00-1-.7h-7.4a.961.961 0 00-.9.7l-1.4 4v5.3a.684.684 0 00.7.7h.7a.669.669 0 00.6-.7v-.6h8v.6a.684.684 0 00.7.7h.7a.684.684 0 00.7-.7v-5.3zm-7.7 6.7a.945.945 0 01-1-1 .945.945 0 011-1 .945.945 0 011 1 .945.945 0 01-1 1zm6 0a.945.945 0 01-1-1 .945.945 0 011-1 .945.945 0 011 1 .945.945 0 01-1 1zm-7.1-4.1l.7-2h6.9l.7 2z" fill="#fff"/><path data-name="Tracé 16" d="M223.76 214.264l.008-.812 3.9-3.528a2.442 2.442 0 00.672-.86 2.314 2.314 0 00.164-.864 1.884 1.884 0 00-.25-.963 1.9 1.9 0 00-.676-.686 1.829 1.829 0 00-.958-.255 1.856 1.856 0 00-.983.263 1.919 1.919 0 00-.681.7 1.832 1.832 0 00-.244.941h-.9a2.694 2.694 0 01.372-1.41 2.694 2.694 0 011.008-.98 2.876 2.876 0 011.44-.366 2.733 2.733 0 011.413.369 2.727 2.727 0 01.991 1 2.726 2.726 0 01.364 1.4 3.146 3.146 0 01-.13.951 2.44 2.44 0 01-.4.76 5.5 5.5 0 01-.692.725l-3.47 3.123-.14-.36h4.832v.852zm11.76 0v-3.308a4.512 4.512 0 00-.1-.991 2.329 2.329 0 00-.328-.791 1.556 1.556 0 00-.583-.524 1.857 1.857 0 00-.869-.186 2 2 0 00-.824.16 1.583 1.583 0 00-.6.463 2.1 2.1 0 00-.367.737 3.557 3.557 0 00-.125.984l-.624-.144a3.639 3.639 0 01.348-1.67 2.4 2.4 0 01.959-1.024 2.8 2.8 0 011.4-.346 2.665 2.665 0 011.016.178 2.194 2.194 0 01.737.484 2.505 2.505 0 01.489.7 3.485 3.485 0 01.27.835 4.673 4.673 0 01.084.878v3.565zm-4.684 0v-8.64h.8v4.88h.092v3.76z" fill="#fff"/><path data-name="Tracé 15" d="M282.235 214.264v-7.656l-1.628.98v-.992l1.628-.972h.892v8.64zm7.852 0v-3.308a4.512 4.512 0 00-.1-.991 2.329 2.329 0 00-.33-.791 1.556 1.556 0 00-.583-.524 1.857 1.857 0 00-.867-.186 2 2 0 00-.824.16 1.583 1.583 0 00-.6.463 2.1 2.1 0 00-.367.737 3.557 3.557 0 00-.125.984l-.624-.144a3.639 3.639 0 01.348-1.67 2.4 2.4 0 01.959-1.024 2.8 2.8 0 011.4-.346 2.665 2.665 0 011.016.178 2.194 2.194 0 01.737.484 2.505 2.505 0 01.489.7 3.485 3.485 0 01.27.835 4.673 4.673 0 01.084.878v3.565zm-4.684 0v-8.64h.8v4.88h.084v3.76zm10.936 0v-1.672h-4.044v-.844l2.892-6.124h.992l-2.892 6.124h3.052v-2.52h.888v2.52h.944v.844h-.944v1.672zm5.824.18a2.823 2.823 0 01-1.245-.28 2.867 2.867 0 01-.973-.762 2.948 2.948 0 01-.574-1.114l.844-.228a1.91 1.91 0 00.417.806 2.078 2.078 0 00.7.525 2.016 2.016 0 00.847.185 1.968 1.968 0 001.037-.278 2.065 2.065 0 00.73-.74 1.979 1.979 0 00.269-1.014 1.94 1.94 0 00-.281-1.032 2.1 2.1 0 00-.744-.73 1.971 1.971 0 00-1.011-.27 2 2 0 00-1.052.267 2.151 2.151 0 00-.708.673l-.8-.34.268-4.488h4.612v.84h-4.228l.44-.412-.236 3.836-.22-.3a2.583 2.583 0 01.9-.664 2.661 2.661 0 011.11-.24 2.769 2.769 0 011.439.381 2.85 2.85 0 011.022 1.028 2.81 2.81 0 01.379 1.447 2.723 2.723 0 01-.4 1.449 3.063 3.063 0 01-1.07 1.052 2.831 2.831 0 01-1.472.403z" fill="#fff"/><path d="M262.049 201.265h16.1v16.1h-16.1z" fill="none"/><path d="M270.049 202.565c-2.6 0-5.3.4-5.3 2.7v6.4a2.263 2.263 0 002.3 2.3l-1 1v.3h1.5l1.3-1.3h2.5l1.3 1.3h1.4v-.3l-1-1a2.326 2.326 0 002.3-2.3v-6.4c.1-2.3-2.3-2.7-5.3-2.7zm-3 10.1a.945.945 0 01-1-1 .945.945 0 011-1 .945.945 0 011 1 .945.945 0 01-1 1zm2.4-4.7h-3.4v-2.7h3.3l.1 2.7zm1.3 0v-2.7h3.3v2.7zm2.3 4.7a.945.945 0 01-1-1 .945.945 0 011-1 .945.945 0 011 1 1 1 0 01-1 1z" fill="#fff"/><path data-name="Tracé 27" d="M180.922 65.943v-10.8h2.04v8.9h4.65v1.9zm11.61.225a4.123 4.123 0 01-2.145-.548 3.8 3.8 0 01-1.436-1.511 4.64 4.64 0 01-.514-2.216 4.591 4.591 0 01.525-2.231 3.826 3.826 0 011.448-1.5 4.123 4.123 0 012.122-.54 4.143 4.143 0 012.149.548 3.819 3.819 0 011.441 1.507 4.612 4.612 0 01.52 2.216 4.6 4.6 0 01-.52 2.224 3.819 3.819 0 01-1.449 1.507 4.151 4.151 0 01-2.141.544zm0-1.905a1.7 1.7 0 001.466-.664 2.825 2.825 0 00.484-1.706 2.777 2.777 0 00-.491-1.725 1.719 1.719 0 00-1.459-.645 1.863 1.863 0 00-1.095.3 1.766 1.766 0 00-.634.832 3.414 3.414 0 00-.206 1.237 2.773 2.773 0 00.491 1.729 1.707 1.707 0 001.444.642zm11.28 1.68v-3.825q0-.277-.03-.709a3.187 3.187 0 00-.187-.866 1.652 1.652 0 00-.514-.727 1.55 1.55 0 00-1.009-.293 2.127 2.127 0 00-.562.082 1.39 1.39 0 00-.562.319 1.711 1.711 0 00-.431.694 3.592 3.592 0 00-.169 1.215l-1.17-.555a4.222 4.222 0 01.39-1.8 3.228 3.228 0 011.174-1.357 3.516 3.516 0 011.98-.518 3.269 3.269 0 011.552.323 2.559 2.559 0 01.934.818 3.4 3.4 0 01.476 1.031 5.22 5.22 0 01.173.979q.03.442.03.645v4.544zm-5.535 0v-8.1h1.815v2.685h.255v5.415zm12.69.225a3.435 3.435 0 01-1.957-.562 3.784 3.784 0 01-1.309-1.53 4.942 4.942 0 01-.469-2.183 4.9 4.9 0 01.476-2.2 3.729 3.729 0 011.339-1.52 3.66 3.66 0 012.025-.555 3.256 3.256 0 011.942.563 3.484 3.484 0 011.193 1.53 5.6 5.6 0 01.4 2.182 5.559 5.559 0 01-.409 2.183 3.449 3.449 0 01-1.219 1.53 3.453 3.453 0 01-2.012.562zm.33-1.815a1.772 1.772 0 001.091-.31 1.7 1.7 0 00.589-.863 4.187 4.187 0 00.18-1.29 4.187 4.187 0 00-.18-1.29 1.74 1.74 0 00-.574-.863 1.628 1.628 0 00-1.031-.304 1.8 1.8 0 00-1.121.334 1.957 1.957 0 00-.649.892 3.482 3.482 0 00-.21 1.234 3.621 3.621 0 00.2 1.241 1.94 1.94 0 00.622.889 1.7 1.7 0 001.083.33zm1.86 1.59v-5.55h-.255v-5.25h2.055v10.8zm3.9 0v-8.1h1.8v1.98l-.195-.255a2.988 2.988 0 01.42-.765 2.208 2.208 0 01.645-.57 2.615 2.615 0 01.637-.281 3.377 3.377 0 01.713-.127 3.8 3.8 0 01.735.019v1.905a2.1 2.1 0 00-.784-.071 2.24 2.24 0 00-.806.206 1.841 1.841 0 00-.607.439 1.841 1.841 0 00-.375.645 2.565 2.565 0 00-.128.836v4.139zm9.795.225a4.382 4.382 0 01-2.194-.536 3.868 3.868 0 01-1.485-1.477 4.279 4.279 0 01-.536-2.156 4.832 4.832 0 01.525-2.31 3.821 3.821 0 011.447-1.526 4.1 4.1 0 012.123-.544 3.8 3.8 0 012.167.6 3.524 3.524 0 011.323 1.687 5.619 5.619 0 01.3 2.557h-2.02v-.75a3.1 3.1 0 00-.394-1.781 1.48 1.48 0 00-1.286-.544 1.819 1.819 0 00-1.534.634 3.017 3.017 0 00-.491 1.871 2.755 2.755 0 00.491 1.75 1.733 1.733 0 001.444.619A1.926 1.926 0 00227.76 64a1.675 1.675 0 00.652-.757l2.04.585a3.589 3.589 0 01-1.444 1.725 4 4 0 01-2.156.615zm-2.685-3.705v-1.515h5.37v1.515zm11.205 3.705a4.066 4.066 0 01-2.471-.694 2.894 2.894 0 01-1.144-1.961l2.085-.315a1.462 1.462 0 00.566.892 1.831 1.831 0 001.114.323 1.459 1.459 0 00.855-.214.691.691 0 00.3-.6.59.59 0 00-.12-.386 1.251 1.251 0 00-.536-.289q-.416-.143-1.294-.375a7.343 7.343 0 01-1.583-.57 2.117 2.117 0 01-.855-.754 2.031 2.031 0 01-.263-1.061 2.318 2.318 0 01.4-1.354 2.548 2.548 0 011.121-.885 4.3 4.3 0 011.706-.311 4.538 4.538 0 011.688.292 2.936 2.936 0 011.189.833 2.486 2.486 0 01.559 1.275l-2.087.379a1.012 1.012 0 00-.39-.712 1.673 1.673 0 00-.915-.307 1.642 1.642 0 00-.9.15.588.588 0 00-.341.54.473.473 0 00.146.352 1.688 1.688 0 00.608.293q.461.15 1.406.39a6.167 6.167 0 011.481.559 2.1 2.1 0 01.814.765 2.136 2.136 0 01.255 1.076 2.36 2.36 0 01-.9 1.957 3.914 3.914 0 01-2.494.712z" fill="#fff"/><path fill="none" d="M195.813 74.265h16.1v16.1h-16.1z"/><path d="M208.52 78.31a1.2 1.2 0 00-1-.7h-7.4a.961.961 0 00-.9.7l-1.4 4v5.3a.684.684 0 00.7.7h.7a.669.669 0 00.6-.7v-.6h8v.6a.684.684 0 00.7.7h.7a.684.684 0 00.7-.7v-5.3zm-7.7 6.7a.945.945 0 01-1-1 .945.945 0 011-1 .945.945 0 011 1 .945.945 0 01-1 1zm6 0a.945.945 0 01-1-1 .945.945 0 011-1 .945.945 0 011 1 .945.945 0 01-1 1zm-7.1-4.1l.7-2h6.9l.7 2z" fill="#fff"/><path data-name="Tracé 24" d="M162.503 87.265l3.18-7.784h-4v-.856h4.944v.856l-3.172 7.784zm10.24 0v-3.308a4.512 4.512 0 00-.1-.991 2.329 2.329 0 00-.328-.791 1.556 1.556 0 00-.583-.524 1.857 1.857 0 00-.865-.186 2 2 0 00-.824.16 1.583 1.583 0 00-.6.463 2.1 2.1 0 00-.367.737 3.557 3.557 0 00-.125.984l-.624-.144a3.639 3.639 0 01.348-1.67 2.4 2.4 0 01.959-1.024 2.8 2.8 0 011.4-.346 2.665 2.665 0 011.016.178 2.194 2.194 0 01.737.484 2.505 2.505 0 01.489.7 3.485 3.485 0 01.27.835 4.673 4.673 0 01.084.878v3.565zm-4.68 0v-8.64h.8v4.88h.092v3.76zm6.892 0l.008-.808 3.9-3.528a2.442 2.442 0 00.668-.864 2.314 2.314 0 00.164-.864 1.884 1.884 0 00-.25-.963 1.9 1.9 0 00-.676-.686 1.829 1.829 0 00-.958-.255 1.856 1.856 0 00-.983.263 1.919 1.919 0 00-.681.7 1.832 1.832 0 00-.244.941h-.9a2.694 2.694 0 01.372-1.41 2.694 2.694 0 011.008-.98 2.876 2.876 0 011.436-.358 2.733 2.733 0 011.413.369 2.727 2.727 0 01.991 1 2.726 2.726 0 01.364 1.4 3.146 3.146 0 01-.13.951 2.44 2.44 0 01-.4.76 5.5 5.5 0 01-.692.725l-3.462 3.115-.14-.36h4.832v.852zm9.9.184a2.8 2.8 0 01-1.438-.372 2.759 2.759 0 01-1.014-1.012 2.8 2.8 0 01-.372-1.438v-3.362a2.8 2.8 0 01.372-1.438 2.759 2.759 0 011.01-1.01 2.8 2.8 0 011.438-.372 2.8 2.8 0 011.438.372 2.759 2.759 0 011.01 1.01 2.8 2.8 0 01.376 1.438v3.36a2.8 2.8 0 01-.372 1.44 2.759 2.759 0 01-1.01 1.01 2.8 2.8 0 01-1.438.37zm0-.852a1.865 1.865 0 00.97-.26 1.966 1.966 0 00.7-.7 1.865 1.865 0 00.26-.97v-3.446a1.865 1.865 0 00-.26-.97 1.967 1.967 0 00-.7-.7 1.865 1.865 0 00-.97-.26 1.865 1.865 0 00-.97.26 1.967 1.967 0 00-.7.7 1.865 1.865 0 00-.26.97v3.444a1.865 1.865 0 00.26.97 1.967 1.967 0 00.7.7 1.865 1.865 0 00.97.258z" fill="#fff"/><path data-name="Tracé 23" d="M235.038 87.445a2.836 2.836 0 01-1.477-.394 2.939 2.939 0 01-1.055-1.069 2.965 2.965 0 01-.392-1.517v-3a3.072 3.072 0 01.39-1.551 2.867 2.867 0 011.07-1.072 2.992 2.992 0 011.532-.393 2.945 2.945 0 011.368.326 2.8 2.8 0 011.034.906l-.676.556a2.067 2.067 0 00-.732-.686 1.988 1.988 0 00-1-.258 2.01 2.01 0 00-1.081.293 2.133 2.133 0 00-.745.77 2.056 2.056 0 00-.271 1.033v1.884l-.22-.252a2.916 2.916 0 01.991-.956 2.587 2.587 0 011.345-.365 2.771 2.771 0 011.443.382 2.84 2.84 0 011.02 1.03 2.826 2.826 0 01.377 1.448 2.747 2.747 0 01-.4 1.455 3 3 0 01-1.057 1.041 2.843 2.843 0 01-1.464.389zm0-.856a1.99 1.99 0 001.027-.272 2.044 2.044 0 00.736-.734 1.979 1.979 0 00.273-1.026 1.99 1.99 0 00-.272-1.027 2.044 2.044 0 00-.734-.736 1.979 1.979 0 00-1.026-.273 1.985 1.985 0 00-1.027.273 2.049 2.049 0 00-.741.736 1.985 1.985 0 00-.273 1.027 1.977 1.977 0 00.273 1.022 2.055 2.055 0 00.734.736 1.973 1.973 0 001.03.274zm9.2.676v-3.308a4.512 4.512 0 00-.1-.991 2.329 2.329 0 00-.328-.791 1.556 1.556 0 00-.583-.524 1.857 1.857 0 00-.867-.186 2 2 0 00-.824.16 1.583 1.583 0 00-.6.463 2.1 2.1 0 00-.362.737 3.557 3.557 0 00-.125.984l-.627-.144a3.639 3.639 0 01.352-1.67 2.4 2.4 0 01.959-1.024 2.8 2.8 0 011.4-.346 2.665 2.665 0 011.016.178 2.194 2.194 0 01.737.484 2.505 2.505 0 01.489.7 3.485 3.485 0 01.27.835 4.673 4.673 0 01.084.878v3.565zm-4.68 0v-8.64h.8v4.88h.092v3.76zm6.892 0l.008-.808 3.9-3.528a2.442 2.442 0 00.668-.864 2.314 2.314 0 00.164-.864 1.884 1.884 0 00-.25-.963 1.9 1.9 0 00-.676-.686 1.829 1.829 0 00-.958-.255 1.856 1.856 0 00-.983.263 1.919 1.919 0 00-.681.7 1.832 1.832 0 00-.244.941h-.9a2.694 2.694 0 01.372-1.41 2.694 2.694 0 011.008-.98 2.876 2.876 0 011.436-.358 2.733 2.733 0 011.413.369 2.727 2.727 0 01.991 1 2.726 2.726 0 01.364 1.4 3.146 3.146 0 01-.13.951 2.44 2.44 0 01-.4.76 5.5 5.5 0 01-.692.725l-3.462 3.115-.14-.36h4.832v.852zm9.9.184a2.8 2.8 0 01-1.438-.372 2.759 2.759 0 01-1.01-1.01 2.8 2.8 0 01-.372-1.438v-3.364a2.8 2.8 0 01.372-1.438 2.759 2.759 0 011.01-1.01 2.8 2.8 0 011.438-.372 2.8 2.8 0 011.438.372 2.759 2.759 0 011.01 1.01 2.8 2.8 0 01.376 1.438v3.36a2.8 2.8 0 01-.376 1.44 2.759 2.759 0 01-1.01 1.01 2.8 2.8 0 01-1.438.37zm0-.852a1.865 1.865 0 00.97-.26 1.966 1.966 0 00.7-.7 1.865 1.865 0 00.254-.972v-3.444a1.865 1.865 0 00-.26-.97 1.967 1.967 0 00-.7-.7 1.865 1.865 0 00-.97-.26 1.865 1.865 0 00-.97.26 1.967 1.967 0 00-.7.7 1.865 1.865 0 00-.26.97v3.444a1.865 1.865 0 00.26.97 1.967 1.967 0 00.7.7 1.865 1.865 0 00.976.258z" fill="#fff"/><path d="M213.436 74.265h16.1v16.1h-16.1z" fill="none"/><path d="M221.436 75.565c-2.6 0-5.3.4-5.3 2.7v6.4a2.263 2.263 0 002.3 2.3l-1 1v.3h1.5l1.3-1.3h2.5l1.3 1.3h1.4v-.3l-1-1a2.326 2.326 0 002.3-2.3v-6.4c.1-2.3-2.3-2.7-5.3-2.7zm-3 10.1a.945.945 0 01-1-1 .945.945 0 011-1 .945.945 0 011 1 .945.945 0 01-1 1zm2.4-4.7h-3.4v-2.7h3.3l.1 2.7zm1.3 0v-2.7h3.3v2.7zm2.3 4.7a.945.945 0 01-1-1 .945.945 0 011-1 .945.945 0 011 1 1 1 0 01-1 1z" fill="#fff"/><path data-name="Tracé 25" d="M489.571 141.938v-10.8h4.32a3.387 3.387 0 011.867.461 2.8 2.8 0 011.043 1.159 3.268 3.268 0 01.33 1.41 2.618 2.618 0 01-.41 1.508 1.964 1.964 0 01-1.121.8v-.375a2.339 2.339 0 011.521.937 2.784 2.784 0 01.5 1.63 3.859 3.859 0 01-.356 1.7 2.618 2.618 0 01-1.079 1.154 3.644 3.644 0 01-1.83.416zm2.07-1.92h2.5a1.508 1.508 0 00.74-.18 1.285 1.285 0 00.506-.495 1.483 1.483 0 00.184-.754 1.446 1.446 0 00-.157-.683 1.15 1.15 0 00-.477-.468 1.617 1.617 0 00-.791-.176h-2.505zm0-4.665h2.22a1.5 1.5 0 00.615-.12.949.949 0 00.427-.371 1.2 1.2 0 00.157-.649 1.19 1.19 0 00-.308-.832 1.146 1.146 0 00-.892-.337h-2.219zm7.485 6.585v-8.1h1.8v1.98l-.2-.255a2.988 2.988 0 01.42-.765 2.208 2.208 0 01.645-.57 2.615 2.615 0 01.637-.281 3.377 3.377 0 01.712-.127 3.8 3.8 0 01.735.019v1.905a2.1 2.1 0 00-.784-.071 2.24 2.24 0 00-.806.206 1.842 1.842 0 00-.608.439 1.841 1.841 0 00-.375.645 2.565 2.565 0 00-.128.836v4.139zm9.195.24a3.269 3.269 0 01-1.552-.323 2.559 2.559 0 01-.934-.817 3.4 3.4 0 01-.476-1.031 5.22 5.22 0 01-.173-.979q-.03-.442-.03-.645v-4.545h2.065v3.825q0 .277.03.709a3.187 3.187 0 00.188.866 1.652 1.652 0 00.514.727 1.55 1.55 0 001.009.293 2.127 2.127 0 00.563-.082 1.39 1.39 0 00.563-.319 1.71 1.71 0 00.431-.7 3.6 3.6 0 00.172-1.209l1.17.555a4.222 4.222 0 01-.39 1.8 3.228 3.228 0 01-1.174 1.357 3.516 3.516 0 01-1.976.518zm2.625-.24v-2.685h-.255v-5.415h2.055v8.1zm3 0l2.9-4.1-2.84-4h2.4l1.615 2.4 1.59-2.4h2.4l-2.83 4 2.91 4.1h-2.4l-1.67-2.49-1.675 2.49zm12.81.225a4.382 4.382 0 01-2.194-.536 3.868 3.868 0 01-1.485-1.477 4.279 4.279 0 01-.536-2.156 4.832 4.832 0 01.525-2.31 3.821 3.821 0 011.447-1.526 4.1 4.1 0 012.123-.544 3.8 3.8 0 012.167.6 3.524 3.524 0 011.318 1.687 5.619 5.619 0 01.3 2.557h-2.015v-.75a3.1 3.1 0 00-.394-1.781 1.48 1.48 0 00-1.291-.544 1.819 1.819 0 00-1.534.634 3.017 3.017 0 00-.486 1.871 2.755 2.755 0 00.491 1.75 1.733 1.733 0 001.444.619 1.926 1.926 0 001.028-.262 1.675 1.675 0 00.653-.758l2.04.585a3.589 3.589 0 01-1.445 1.726 4 4 0 01-2.156.615zm-2.685-3.705v-1.515h5.37v1.515zm8.19 3.48v-11.025h2.04v11.025zm4.44 0v-11.025h2.04v11.025zm8.055.225a4.382 4.382 0 01-2.194-.536 3.868 3.868 0 01-1.485-1.477 4.279 4.279 0 01-.536-2.156 4.832 4.832 0 01.525-2.31 3.821 3.821 0 011.447-1.526 4.1 4.1 0 012.123-.544 3.8 3.8 0 012.167.6 3.524 3.524 0 011.318 1.687 5.619 5.619 0 01.3 2.557h-2.015v-.75a3.1 3.1 0 00-.394-1.781 1.48 1.48 0 00-1.291-.544 1.819 1.819 0 00-1.534.634 3.017 3.017 0 00-.486 1.871 2.755 2.755 0 00.491 1.75 1.733 1.733 0 001.444.619 1.926 1.926 0 001.028-.262 1.675 1.675 0 00.653-.758l2.04.585a3.589 3.589 0 01-1.445 1.726 4 4 0 01-2.156.615zm-2.685-3.705v-1.515h5.37v1.515zm11.205 3.705a4.066 4.066 0 01-2.471-.694 2.894 2.894 0 01-1.144-1.961l2.085-.315a1.462 1.462 0 00.566.892 1.831 1.831 0 001.109.323 1.459 1.459 0 00.855-.214.691.691 0 00.3-.6.59.59 0 00-.12-.386 1.251 1.251 0 00-.536-.289q-.416-.143-1.294-.375a7.343 7.343 0 01-1.583-.57 2.117 2.117 0 01-.855-.754 2.031 2.031 0 01-.263-1.061 2.318 2.318 0 01.4-1.354 2.548 2.548 0 011.121-.885 4.3 4.3 0 011.706-.311 4.538 4.538 0 011.688.292 2.936 2.936 0 011.189.833 2.486 2.486 0 01.559 1.275l-2.085.375a1.012 1.012 0 00-.39-.712 1.673 1.673 0 00-.915-.307 1.642 1.642 0 00-.9.15.588.588 0 00-.341.54.473.473 0 00.146.352 1.688 1.688 0 00.608.293q.461.15 1.406.39a6.167 6.167 0 011.481.559 2.1 2.1 0 01.814.765 2.136 2.136 0 01.255 1.076 2.36 2.36 0 01-.9 1.957 3.914 3.914 0 01-2.491.716z" fill="#fff"/><path fill="none" d="M507.624 150.265h16.1v16.1h-16.1z"/><path d="M520.331 154.31a1.2 1.2 0 00-1-.7h-7.4a.961.961 0 00-.9.7l-1.4 4v5.3a.684.684 0 00.7.7h.7a.669.669 0 00.6-.7v-.6h8v.6a.684.684 0 00.7.7h.7a.684.684 0 00.7-.7v-5.3zm-7.7 6.7a.945.945 0 01-1-1 .945.945 0 011-1 .945.945 0 011 1 .945.945 0 01-1 1zm6 0a.945.945 0 01-1-1 .945.945 0 011-1 .945.945 0 011 1 .945.945 0 01-1 1zm-7.1-4.1l.7-2h6.9l.7 2z" fill="#fff"/><path data-name="Tracé 20" d="M491.516 163.444a2.836 2.836 0 01-1.477-.394 2.939 2.939 0 01-1.055-1.069 2.965 2.965 0 01-.392-1.517v-3a3.072 3.072 0 01.39-1.551 2.867 2.867 0 011.07-1.072 2.992 2.992 0 011.532-.393 2.945 2.945 0 011.368.326 2.8 2.8 0 011.034.906l-.676.556a2.067 2.067 0 00-.732-.686 1.988 1.988 0 00-1-.258 2.01 2.01 0 00-1.081.293 2.133 2.133 0 00-.745.77 2.056 2.056 0 00-.271 1.033v1.884l-.22-.252a2.916 2.916 0 01.991-.956 2.587 2.587 0 011.345-.365 2.771 2.771 0 011.443.382 2.84 2.84 0 011.02 1.03 2.826 2.826 0 01.377 1.448 2.747 2.747 0 01-.4 1.455 3 3 0 01-1.057 1.041 2.843 2.843 0 01-1.464.389zm0-.856a1.99 1.99 0 001.027-.272 2.044 2.044 0 00.736-.734 1.979 1.979 0 00.273-1.026 1.99 1.99 0 00-.272-1.027 2.044 2.044 0 00-.734-.736 1.979 1.979 0 00-1.026-.273 1.985 1.985 0 00-1.027.273 2.049 2.049 0 00-.741.736 1.985 1.985 0 00-.273 1.027 1.977 1.977 0 00.273 1.022 2.055 2.055 0 00.734.736 1.973 1.973 0 001.03.274zm9.2.676v-3.308a4.512 4.512 0 00-.1-.991 2.329 2.329 0 00-.328-.791 1.556 1.556 0 00-.583-.524 1.857 1.857 0 00-.867-.186 2 2 0 00-.824.16 1.583 1.583 0 00-.6.463 2.1 2.1 0 00-.362.737 3.557 3.557 0 00-.125.984l-.627-.144a3.639 3.639 0 01.352-1.67 2.4 2.4 0 01.959-1.024 2.8 2.8 0 011.4-.346 2.665 2.665 0 011.016.178 2.194 2.194 0 01.737.484 2.505 2.505 0 01.489.7 3.485 3.485 0 01.27.835 4.673 4.673 0 01.084.878v3.565zm-4.68 0v-8.64h.8v4.88h.092v3.76z" fill="#fff"/><path data-name="Tracé 19" d="M549.729 163.264v-1.672h-4.044v-.844l2.892-6.124h.992l-2.892 6.124h3.052v-2.52h.888v2.52h.944v.844h-.944v1.672zm7.956 0v-3.308a4.512 4.512 0 00-.1-.991 2.329 2.329 0 00-.328-.791 1.556 1.556 0 00-.583-.524 1.857 1.857 0 00-.867-.186 2 2 0 00-.824.16 1.583 1.583 0 00-.6.463 2.1 2.1 0 00-.367.737 3.557 3.557 0 00-.125.984l-.63-.144a3.639 3.639 0 01.348-1.67 2.4 2.4 0 01.959-1.024 2.8 2.8 0 011.4-.346 2.665 2.665 0 011.016.178 2.194 2.194 0 01.737.484 2.505 2.505 0 01.489.7 3.485 3.485 0 01.27.835 4.673 4.673 0 01.084.878v3.565zm-4.688 0v-8.64h.8v4.88h.088v3.76z" fill="#fff"/><path d="M527.247 150.265h16.1v16.1h-16.1z" fill="none"/><path d="M535.247 151.565c-2.6 0-5.3.4-5.3 2.7v6.4a2.263 2.263 0 002.3 2.3l-1 1v.3h1.5l1.3-1.3h2.5l1.3 1.3h1.4v-.3l-1-1a2.326 2.326 0 002.3-2.3v-6.4c.1-2.3-2.3-2.7-5.3-2.7zm-3 10.1a.945.945 0 01-1-1 .945.945 0 011-1 .945.945 0 011 1 .945.945 0 01-1 1zm2.4-4.7h-3.4v-2.7h3.3l.1 2.7zm1.3 0v-2.7h3.3v2.7zm2.3 4.7a.945.945 0 01-1-1 .945.945 0 011-1 .945.945 0 011 1 1 1 0 01-1 1z" fill="#fff"/><path fill="none" d="M156.801 280.265h16.1v16.1h-16.1z"/><path d="M169.408 284.31a.961.961 0 00-.9-.7h-7.4a.961.961 0 00-.9.7l-1.4 4v5.3a.684.684 0 00.7.7h.7a.669.669 0 00.6-.7v-.6h8v.6a.684.684 0 00.7.7h.7a.684.684 0 00.7-.7v-5.3zm-7.6 6.7a.945.945 0 01-1-1 .945.945 0 011-1 .945.945 0 011 1 .945.945 0 01-1 1zm6 0a.945.945 0 01-1-1 .945.945 0 011-1 .945.945 0 011 1 .945.945 0 01-1 1zm-7.1-4.1l.7-2h6.9l.7 2z" fill="#fff"/><path data-name="Tracé 14" d="M126.757 293.265v-7.656l-1.628.98v-.992l1.628-.972h.892v8.64zm7.852 0v-3.308a4.512 4.512 0 00-.1-.991 2.329 2.329 0 00-.33-.791 1.556 1.556 0 00-.583-.524 1.857 1.857 0 00-.867-.186 2 2 0 00-.824.16 1.583 1.583 0 00-.6.463 2.1 2.1 0 00-.367.737 3.557 3.557 0 00-.125.984l-.624-.144a3.639 3.639 0 01.348-1.67 2.4 2.4 0 01.959-1.024 2.8 2.8 0 011.4-.346 2.665 2.665 0 011.016.178 2.194 2.194 0 01.737.484 2.505 2.505 0 01.489.7 3.485 3.485 0 01.27.835 4.673 4.673 0 01.084.878v3.565zm-4.684 0v-8.64h.8v4.88h.084v3.76zm10.936 0v-1.672h-4.044v-.844l2.892-6.124h.992l-2.892 6.124h3.052v-2.52h.888v2.52h.944v.844h-.944v1.672zm6.092.18a2.8 2.8 0 01-1.438-.372 2.759 2.759 0 01-1.006-1.008 2.8 2.8 0 01-.372-1.438v-3.362a2.8 2.8 0 01.372-1.438 2.759 2.759 0 011.01-1.01 2.8 2.8 0 011.438-.372 2.8 2.8 0 011.438.372 2.759 2.759 0 011.01 1.01 2.8 2.8 0 01.368 1.438v3.36a2.8 2.8 0 01-.372 1.44 2.759 2.759 0 01-1.01 1.01 2.8 2.8 0 01-1.438.37zm0-.852a1.865 1.865 0 00.97-.26 1.966 1.966 0 00.7-.7 1.865 1.865 0 00.26-.97v-3.442a1.865 1.865 0 00-.26-.97 1.967 1.967 0 00-.7-.7 1.865 1.865 0 00-.97-.26 1.865 1.865 0 00-.97.26 1.967 1.967 0 00-.7.7 1.865 1.865 0 00-.26.97v3.444a1.865 1.865 0 00.26.97 1.967 1.967 0 00.7.7 1.865 1.865 0 00.97.258z" fill="#fff"/><path data-name="Tracé 13" d="M197.654 293.445a2.823 2.823 0 01-1.245-.28 2.867 2.867 0 01-.973-.762 2.948 2.948 0 01-.574-1.11l.844-.228a1.91 1.91 0 00.417.806 2.078 2.078 0 00.7.525 2.016 2.016 0 00.847.185 1.968 1.968 0 001.041-.278 2.065 2.065 0 00.73-.74 1.979 1.979 0 00.269-1.014 1.94 1.94 0 00-.281-1.032 2.1 2.1 0 00-.744-.73 1.971 1.971 0 00-1.011-.27 2 2 0 00-1.052.267 2.151 2.151 0 00-.708.673l-.8-.34.26-4.492h4.612v.84h-4.224l.44-.412-.24 3.84-.22-.3a2.583 2.583 0 01.9-.664 2.661 2.661 0 011.11-.24 2.769 2.769 0 011.439.381 2.85 2.85 0 011.024 1.032 2.81 2.81 0 01.379 1.447 2.723 2.723 0 01-.4 1.449 3.063 3.063 0 01-1.072 1.052 2.831 2.831 0 01-1.468.395zm6.932 0a2.823 2.823 0 01-1.245-.28 2.867 2.867 0 01-.973-.762 2.948 2.948 0 01-.574-1.114l.844-.224a1.91 1.91 0 00.417.806 2.078 2.078 0 00.7.525 2.016 2.016 0 00.847.185 1.968 1.968 0 001.037-.278 2.065 2.065 0 00.73-.74 1.979 1.979 0 00.269-1.014 1.94 1.94 0 00-.276-1.032 2.1 2.1 0 00-.744-.73 1.971 1.971 0 00-1.011-.27 2 2 0 00-1.052.267 2.151 2.151 0 00-.708.673l-.8-.34.259-4.492h4.612v.84h-4.224l.44-.412-.236 3.84-.22-.3a2.583 2.583 0 01.9-.664 2.661 2.661 0 011.11-.24 2.769 2.769 0 011.439.381 2.85 2.85 0 011.022 1.028 2.81 2.81 0 01.379 1.447 2.723 2.723 0 01-.4 1.449 3.063 3.063 0 01-1.07 1.052 2.831 2.831 0 01-1.472.399zm12.108-.18l.008-4.252a1.625 1.625 0 00-.417-1.183 1.414 1.414 0 00-1.059-.429 1.613 1.613 0 00-.716.169 1.371 1.371 0 00-.571.54 1.863 1.863 0 00-.225.975l-.524-.152a2.323 2.323 0 01.271-1.22 2.067 2.067 0 01.8-.811 2.324 2.324 0 011.161-.289 2.089 2.089 0 011.569.6 2.235 2.235 0 01.591 1.632l-.008 4.42zm-7.732 0v-6.48h.792v1.6h.092v4.88zm3.872 0l.008-4.2a1.735 1.735 0 00-.411-1.221 1.4 1.4 0 00-1.081-.447 1.4 1.4 0 00-1.088.468 1.759 1.759 0 00-.415 1.223l-.524-.288a2.151 2.151 0 01.294-1.122 2.118 2.118 0 01.8-.778 2.338 2.338 0 011.159-.284 2.272 2.272 0 011.1.262 1.872 1.872 0 01.759.766 2.525 2.525 0 01.279 1.221l-.008 4.4zm6.428-7.708v-.992h.88v.992zm0 7.708v-6.48h.88v6.48zm7.36 0v-3.308a4.512 4.512 0 00-.1-.991 2.329 2.329 0 00-.328-.791 1.556 1.556 0 00-.583-.524 1.857 1.857 0 00-.869-.186 2 2 0 00-.824.16 1.583 1.583 0 00-.6.463 2.1 2.1 0 00-.367.737 3.557 3.557 0 00-.125.984l-.624-.144a3.639 3.639 0 01.348-1.674 2.4 2.4 0 01.959-1.024 2.8 2.8 0 011.4-.346 2.665 2.665 0 011.016.178 2.194 2.194 0 01.737.484 2.505 2.505 0 01.489.7 3.486 3.486 0 01.27.835 4.673 4.673 0 01.084.878v3.569zm-4.684 0v-6.48h.8v1.6h.092v4.88z" fill="#fff"/><path d="M176.424 280.265h16.1v16.1h-16.1z" fill="none"/><path d="M184.424 281.565c-2.6 0-5.3.4-5.3 2.7v6.4a2.263 2.263 0 002.3 2.3l-1 1v.3h1.5l1.3-1.3h2.5l1.3 1.3h1.4v-.3l-1-1a2.326 2.326 0 002.3-2.3v-6.4c.1-2.3-2.3-2.7-5.3-2.7zm-3 10.1a.945.945 0 01-1-1 .945.945 0 011-1 .945.945 0 011 1 .945.945 0 01-1 1zm2.4-4.7h-3.4v-2.7h3.3l.1 2.7zm1.3 0v-2.7h3.3v2.7zm2.3 4.7a.945.945 0 01-1-1 .945.945 0 011-1 .945.945 0 011 1 1 1 0 01-1 1z" fill="#fff"/><path fill="none" d="M205.858 366.264h16.1v16.1h-16.1z"/><path d="M218.465 370.309a.961.961 0 00-.9-.7h-7.4a.961.961 0 00-.9.7l-1.4 4v5.3a.684.684 0 00.7.7h.7a.669.669 0 00.6-.7v-.6h8v.6a.684.684 0 00.7.7h.7a.684.684 0 00.7-.7v-5.3zm-7.6 6.7a.945.945 0 01-1-1 .945.945 0 011-1 .945.945 0 011 1 .945.945 0 01-1 1zm6 0a.945.945 0 01-1-1 .945.945 0 011-1 .945.945 0 011 1 .945.945 0 01-1 1zm-7.1-4.1l.7-2h6.9l.7 2z" fill="#fff"/><path data-name="Tracé 12" d="M187.219 378.264l.008-.812 3.9-3.528a2.442 2.442 0 00.672-.86 2.314 2.314 0 00.164-.864 1.884 1.884 0 00-.25-.963 1.9 1.9 0 00-.676-.686 1.829 1.829 0 00-.958-.255 1.856 1.856 0 00-.983.263 1.919 1.919 0 00-.681.7 1.832 1.832 0 00-.244.941h-.9a2.694 2.694 0 01.372-1.41 2.694 2.694 0 011.008-.98 2.876 2.876 0 011.44-.366 2.733 2.733 0 011.413.369 2.727 2.727 0 01.991 1 2.726 2.726 0 01.364 1.4 3.146 3.146 0 01-.13.951 2.44 2.44 0 01-.4.76 5.5 5.5 0 01-.692.725l-3.47 3.123-.14-.36h4.832v.852zm11.76 0v-3.308a4.512 4.512 0 00-.1-.991 2.329 2.329 0 00-.328-.791 1.556 1.556 0 00-.583-.524 1.857 1.857 0 00-.869-.186 2 2 0 00-.824.16 1.583 1.583 0 00-.6.463 2.1 2.1 0 00-.367.737 3.557 3.557 0 00-.125.984l-.624-.144a3.639 3.639 0 01.348-1.67 2.4 2.4 0 01.959-1.024 2.8 2.8 0 011.4-.346 2.665 2.665 0 011.016.178 2.194 2.194 0 01.737.484 2.505 2.505 0 01.489.7 3.485 3.485 0 01.27.835 4.673 4.673 0 01.084.878v3.565zm-4.684 0v-8.64h.8v4.88h.092v3.76z" fill="#fff"/><path data-name="Tracé 11" d="M245.667 378.264v-7.656l-1.628.98v-.992l1.628-.972h.892v8.64zm7.852 0v-3.308a4.512 4.512 0 00-.1-.991 2.329 2.329 0 00-.33-.791 1.556 1.556 0 00-.583-.524 1.857 1.857 0 00-.867-.186 2 2 0 00-.824.16 1.583 1.583 0 00-.6.463 2.1 2.1 0 00-.367.737 3.557 3.557 0 00-.125.984l-.624-.144a3.639 3.639 0 01.348-1.67 2.4 2.4 0 01.959-1.024 2.8 2.8 0 011.4-.346 2.665 2.665 0 011.016.178 2.194 2.194 0 01.737.484 2.505 2.505 0 01.489.7 3.485 3.485 0 01.27.835 4.673 4.673 0 01.084.878v3.565zm-4.684 0v-8.64h.8v4.88h.084v3.76zm6.892 0l.008-.808 3.9-3.528a2.442 2.442 0 00.668-.864 2.314 2.314 0 00.164-.864 1.884 1.884 0 00-.25-.963 1.9 1.9 0 00-.676-.686 1.829 1.829 0 00-.958-.255 1.856 1.856 0 00-.983.263 1.919 1.919 0 00-.681.7 1.832 1.832 0 00-.244.941h-.9a2.694 2.694 0 01.372-1.41 2.694 2.694 0 011.008-.98 2.876 2.876 0 011.444-.366 2.733 2.733 0 011.413.369 2.727 2.727 0 01.991 1 2.726 2.726 0 01.364 1.4 3.146 3.146 0 01-.13.951 2.44 2.44 0 01-.4.76 5.5 5.5 0 01-.692.725l-3.47 3.123-.14-.36h4.832v.852zm9.9.184a2.8 2.8 0 01-1.438-.376 2.759 2.759 0 01-1.01-1.008 2.8 2.8 0 01-.372-1.438v-3.362a2.8 2.8 0 01.372-1.438 2.759 2.759 0 011.01-1.01 2.8 2.8 0 011.438-.372 2.8 2.8 0 011.438.372 2.759 2.759 0 011.01 1.01 2.8 2.8 0 01.372 1.438v3.36a2.8 2.8 0 01-.372 1.44 2.759 2.759 0 01-1.01 1.01 2.8 2.8 0 01-1.438.37zm0-.852a1.865 1.865 0 00.97-.26 1.966 1.966 0 00.7-.7 1.865 1.865 0 00.26-.97v-3.446a1.865 1.865 0 00-.26-.97 1.967 1.967 0 00-.7-.7 1.865 1.865 0 00-.97-.26 1.865 1.865 0 00-.97.26 1.967 1.967 0 00-.7.7 1.865 1.865 0 00-.26.97v3.444a1.865 1.865 0 00.26.97 1.967 1.967 0 00.7.7 1.865 1.865 0 00.97.258z" fill="#fff"/><path d="M225.48 366.264h16.1v16.1h-16.1z" fill="none"/><path d="M233.48 367.564c-2.6 0-5.3.4-5.3 2.7v6.4a2.263 2.263 0 002.3 2.3l-1 1v.3h1.5l1.3-1.3h2.5l1.3 1.3h1.4v-.3l-1-1a2.326 2.326 0 002.3-2.3v-6.4c.1-2.3-2.3-2.7-5.3-2.7zm-3 10.1a.945.945 0 01-1-1 .945.945 0 011-1 .945.945 0 011 1 .945.945 0 01-1 1zm2.4-4.7h-3.4v-2.7h3.3l.1 2.7zm1.3 0v-2.7h3.3v2.7zm2.3 4.7a.945.945 0 01-1-1 .945.945 0 011-1 .945.945 0 011 1 1 1 0 01-1 1z" fill="#fff"/><path fill="none" d="M294.053 407.265h16.1v16.1h-16.1z"/><path d="M306.66 411.31a.961.961 0 00-.9-.7h-7.4a.961.961 0 00-.9.7l-1.4 4v5.3a.684.684 0 00.7.7h.7a.669.669 0 00.6-.7v-.6h8v.6a.684.684 0 00.7.7h.7a.684.684 0 00.7-.7v-5.3zm-7.6 6.7a.945.945 0 01-1-1 .945.945 0 011-1 .945.945 0 011 1 .945.945 0 01-1 1zm6 0a.945.945 0 01-1-1 .945.945 0 011-1 .945.945 0 011 1 .945.945 0 01-1 1zm-7.1-4.1l.7-2h6.9l.7 2z" fill="#fff"/><path data-name="Tracé 10" d="M267.712 420.265v-7.656l-1.628.98v-.992l1.628-.972h.892v8.64zm7.852 0v-3.308a4.512 4.512 0 00-.1-.991 2.329 2.329 0 00-.33-.791 1.556 1.556 0 00-.583-.524 1.857 1.857 0 00-.867-.186 2 2 0 00-.824.16 1.583 1.583 0 00-.6.463 2.1 2.1 0 00-.367.737 3.557 3.557 0 00-.125.984l-.624-.144a3.639 3.639 0 01.348-1.67 2.4 2.4 0 01.959-1.024 2.8 2.8 0 011.4-.346 2.665 2.665 0 011.016.178 2.194 2.194 0 01.737.484 2.505 2.505 0 01.489.7 3.485 3.485 0 01.27.835 4.673 4.673 0 01.084.878v3.565zm-4.684 0v-8.64h.8v4.88h.084v3.76zm8.64 0v-7.656l-1.628.98v-.992l1.628-.972h.892v8.64zm5.724.18a2.823 2.823 0 01-1.245-.28 2.867 2.867 0 01-.973-.762 2.948 2.948 0 01-.574-1.114l.844-.228a1.91 1.91 0 00.417.806 2.078 2.078 0 00.7.525 2.016 2.016 0 00.847.185 1.968 1.968 0 001.037-.278 2.065 2.065 0 00.73-.74 1.979 1.979 0 00.269-1.014 1.94 1.94 0 00-.281-1.032 2.1 2.1 0 00-.744-.73 1.971 1.971 0 00-1.011-.27 2 2 0 00-1.052.267 2.151 2.151 0 00-.708.673l-.8-.34.264-4.488h4.612v.84h-4.224l.44-.412-.236 3.836-.22-.3a2.583 2.583 0 01.9-.664 2.661 2.661 0 011.11-.24 2.769 2.769 0 011.439.381 2.85 2.85 0 011.022 1.028 2.81 2.81 0 01.379 1.447 2.723 2.723 0 01-.4 1.449 3.063 3.063 0 01-1.07 1.052 2.831 2.831 0 01-1.472.403z" fill="#fff"/><path data-name="Tracé 9" d="M333.862 420.265v-7.656l-1.628.98v-.992l1.628-.972h.892v8.64zm7.852 0v-3.308a4.512 4.512 0 00-.1-.991 2.329 2.329 0 00-.33-.791 1.556 1.556 0 00-.583-.524 1.857 1.857 0 00-.867-.186 2 2 0 00-.824.16 1.583 1.583 0 00-.6.463 2.1 2.1 0 00-.367.737 3.557 3.557 0 00-.125.984l-.624-.144a3.639 3.639 0 01.348-1.67 2.4 2.4 0 01.959-1.024 2.8 2.8 0 011.4-.346 2.665 2.665 0 011.016.178 2.194 2.194 0 01.737.484 2.505 2.505 0 01.489.7 3.485 3.485 0 01.27.835 4.673 4.673 0 01.084.878v3.565zm-4.684 0v-8.64h.8v4.88h.084v3.76z" fill="#fff"/><path d="M313.675 407.265h16.1v16.1h-16.1z" fill="none"/><path d="M321.675 408.565c-2.6 0-5.3.4-5.3 2.7v6.4a2.263 2.263 0 002.3 2.3l-1 1v.3h1.5l1.3-1.3h2.5l1.3 1.3h1.4v-.3l-1-1a2.326 2.326 0 002.3-2.3v-6.4c.1-2.3-2.3-2.7-5.3-2.7zm-3 10.1a.945.945 0 01-1-1 .945.945 0 011-1 .945.945 0 011 1 .945.945 0 01-1 1zm2.4-4.7h-3.4v-2.7h3.3l.1 2.7zm1.3 0v-2.7h3.3v2.7zm2.3 4.7a.945.945 0 01-1-1 .945.945 0 011-1 .945.945 0 011 1 1 1 0 01-1 1z" fill="#fff"/><path fill="none" d="M452.204 411.265h16.1v16.1h-16.1z"/><path d="M464.811 415.31a.961.961 0 00-.9-.7h-7.4a.961.961 0 00-.9.7l-1.4 4v5.3a.684.684 0 00.7.7h.7a.669.669 0 00.6-.7v-.6h8v.6a.684.684 0 00.7.7h.7a.684.684 0 00.7-.7v-5.3zm-7.6 6.7a.945.945 0 01-1-1 .945.945 0 011-1 .945.945 0 011 1 .945.945 0 01-1 1zm6 0a.945.945 0 01-1-1 .945.945 0 011-1 .945.945 0 011 1 .945.945 0 01-1 1zm-7.1-4.1l.7-2h6.9l.7 2z" fill="#fff"/><path data-name="Tracé 8" d="M436.123 424.445a2.836 2.836 0 01-1.477-.394 2.939 2.939 0 01-1.055-1.069 2.965 2.965 0 01-.392-1.517v-3a3.072 3.072 0 01.39-1.551 2.867 2.867 0 011.07-1.072 2.992 2.992 0 011.532-.393 2.945 2.945 0 011.368.326 2.8 2.8 0 011.034.906l-.676.556a2.067 2.067 0 00-.732-.686 1.988 1.988 0 00-1-.258 2.01 2.01 0 00-1.081.293 2.133 2.133 0 00-.745.77 2.056 2.056 0 00-.271 1.033v1.884l-.22-.252a2.916 2.916 0 01.991-.956 2.587 2.587 0 011.345-.365 2.771 2.771 0 011.443.382 2.84 2.84 0 011.02 1.03 2.826 2.826 0 01.377 1.448 2.747 2.747 0 01-.4 1.455 3 3 0 01-1.057 1.041 2.843 2.843 0 01-1.464.389zm0-.856a1.99 1.99 0 001.027-.272 2.044 2.044 0 00.736-.734 1.979 1.979 0 00.273-1.026 1.99 1.99 0 00-.272-1.027 2.044 2.044 0 00-.734-.736 1.979 1.979 0 00-1.026-.273 1.985 1.985 0 00-1.027.273 2.049 2.049 0 00-.741.736 1.985 1.985 0 00-.273 1.027 1.977 1.977 0 00.273 1.022 2.055 2.055 0 00.734.736 1.973 1.973 0 001.03.274zm9.2.676v-3.308a4.512 4.512 0 00-.1-.991 2.329 2.329 0 00-.328-.791 1.556 1.556 0 00-.583-.524 1.857 1.857 0 00-.867-.186 2 2 0 00-.824.16 1.583 1.583 0 00-.6.463 2.1 2.1 0 00-.362.737 3.557 3.557 0 00-.125.984l-.627-.144a3.639 3.639 0 01.352-1.67 2.4 2.4 0 01.959-1.024 2.8 2.8 0 011.4-.346 2.665 2.665 0 011.016.178 2.194 2.194 0 01.737.484 2.505 2.505 0 01.489.7 3.485 3.485 0 01.27.835 4.673 4.673 0 01.084.878v3.565zm-4.68 0v-8.64h.8v4.88h.092v3.76z" fill="#fff"/><path data-name="Tracé 7" d="M492.825 424.437a3.014 3.014 0 01-1.18-.227 2.626 2.626 0 01-.929-.651 2.621 2.621 0 01-.571-1.01l.84-.252a1.835 1.835 0 00.713.973 1.9 1.9 0 001.119.319 1.98 1.98 0 00.991-.26 1.662 1.662 0 00.638-.684 2.2 2.2 0 00.219-1.016 1.969 1.969 0 00-.513-1.419 1.787 1.787 0 00-1.355-.537 2.007 2.007 0 00-.49.065 2.347 2.347 0 00-.478.175l-.444-.7 3.356-3.1.144.364h-4.396v-.852h4.992v.856l-2.928 2.8-.012-.352a2.835 2.835 0 011.581.2 2.4 2.4 0 011.072.97 2.928 2.928 0 01.387 1.525 2.925 2.925 0 01-.358 1.465 2.575 2.575 0 01-.98.988 2.809 2.809 0 01-1.418.36zm9-.172v-3.308a4.512 4.512 0 00-.1-.991 2.329 2.329 0 00-.328-.791 1.556 1.556 0 00-.583-.524 1.857 1.857 0 00-.867-.186 2 2 0 00-.824.16 1.583 1.583 0 00-.6.463 2.1 2.1 0 00-.367.737 3.557 3.557 0 00-.125.984l-.63-.144a3.639 3.639 0 01.348-1.67 2.4 2.4 0 01.959-1.024 2.8 2.8 0 011.4-.346 2.665 2.665 0 011.016.178 2.194 2.194 0 01.737.484 2.505 2.505 0 01.489.7 3.485 3.485 0 01.27.835 4.673 4.673 0 01.084.878v3.565zm-4.688 0v-8.64h.8v4.88h.088v3.76z" fill="#fff"/><path d="M471.826 411.265h16.1v16.1h-16.1z" fill="none"/><path d="M479.826 412.565c-2.6 0-5.3.4-5.3 2.7v6.4a2.263 2.263 0 002.3 2.3l-1 1v.3h1.5l1.3-1.3h2.5l1.3 1.3h1.4v-.3l-1-1a2.326 2.326 0 002.3-2.3v-6.4c.1-2.3-2.3-2.7-5.3-2.7zm-3 10.1a.945.945 0 01-1-1 .945.945 0 011-1 .945.945 0 011 1 .945.945 0 01-1 1zm2.4-4.7h-3.4v-2.7h3.3l.1 2.7zm1.3 0v-2.7h3.3v2.7zm2.3 4.7a.945.945 0 01-1-1 .945.945 0 011-1 .945.945 0 011 1 1 1 0 01-1 1z" fill="#fff"/><g fill="#1e97a7"><path d="M206.872 27.924l3.492 17.964-1.964.382-3.492-17.964z"/><path d="M213.601 32.11l-1.118 1.658-6.323-4.265-4.265 6.323-1.658-1.118 5.383-7.98z"/></g><g fill="#1e97a7"><path d="M538.156 108.497l-11.51 14.219-1.554-1.258 11.51-14.22z"/><path d="M539.276 116.34l-1.986.209-.8-7.583-7.583.799-.209-1.988 9.57-1.007z"/></g><g fill="#1e97a7"><path d="M473.07 452.659l-3.493-17.964 1.964-.382 3.492 17.964z"/><path d="M466.34 448.473l1.118-1.658 6.323 4.265 4.265-6.323 1.658 1.118-5.383 7.98z"/></g></svg>